{"glyphs":{"0":{"ha":764,"x_min":0,"x_max":0,"o":"m 463 939 b 740 592 656 939 740 776 b 335 -17 740 306 594 -17 b 57 331 142 -17 57 146 b 463 939 57 617 203 939 m 454 819 b 190 324 279 819 190 532 b 343 103 190 213 219 103 b 607 599 518 103 607 390 b 454 819 607 710 578 819 "},"1":{"ha":474,"x_min":0,"x_max":0,"o":"m 271 761 b 122 701 224 739 165 718 l 136 828 b 335 922 197 854 267 888 l 432 922 l 268 0 l 136 0 "},"2":{"ha":707,"x_min":0,"x_max":0,"o":"m 54 121 b 433 501 176 233 326 374 b 550 719 481 557 550 636 b 419 822 550 786 486 822 b 247 675 340 822 261 760 l 124 710 b 431 939 154 850 303 939 b 683 721 567 939 683 853 b 549 436 683 621 619 522 b 236 117 456 324 346 217 l 643 117 l 626 0 l 40 0 "},"3":{"ha":721,"x_min":0,"x_max":0,"o":"m 239 539 b 371 556 297 540 336 546 b 522 715 440 575 522 631 b 389 822 522 779 469 822 b 219 719 318 822 250 785 l 113 771 b 397 939 163 871 269 939 b 654 724 554 939 654 856 b 510 493 654 629 601 538 b 642 296 588 465 642 390 b 297 -17 642 119 488 -17 b 22 140 179 -17 63 36 l 129 192 b 293 100 158 125 224 100 b 508 285 397 100 508 167 b 338 415 508 364 436 415 b 226 404 303 415 271 414 l 239 539 "},"4":{"ha":747,"x_min":0,"x_max":0,"o":"m 435 232 l 17 232 l 39 376 b 542 922 182 528 386 751 l 683 922 l 582 349 l 719 349 l 699 232 l 561 232 l 519 0 l 393 0 m 525 735 l 524 735 b 181 349 417 608 264 440 l 454 349 "},"5":{"ha":693,"x_min":0,"x_max":0,"o":"m 328 806 b 265 547 308 717 285 610 b 392 574 304 565 351 574 b 642 325 535 574 642 468 b 294 -17 642 146 493 -17 b 19 140 178 -17 57 46 l 128 193 b 283 100 154 131 214 100 b 508 319 399 100 508 190 b 349 457 508 404 443 457 b 199 396 294 457 242 436 l 110 453 b 225 922 147 589 194 789 l 699 922 l 679 806 l 328 806 "},"6":{"ha":742,"x_min":0,"x_max":0,"o":"m 651 856 b 236 497 474 786 314 668 b 449 583 294 547 357 583 b 689 340 583 583 689 486 b 344 -17 689 158 544 -17 b 57 283 161 -17 57 119 b 608 976 57 599 314 861 l 651 856 m 419 467 b 193 339 333 467 240 413 b 189 268 190 315 189 292 b 338 100 189 176 235 100 b 556 332 467 100 556 207 b 419 467 556 406 501 467 "},"7":{"ha":628,"x_min":0,"x_max":0,"o":"m 683 822 b 149 -35 528 585 290 206 l 36 28 b 531 803 211 319 426 643 l 92 803 l 113 922 l 699 922 l 683 822 "},"8":{"ha":781,"x_min":0,"x_max":0,"o":"m 690 299 b 324 -17 690 115 515 -17 b 60 221 192 -17 60 75 b 251 490 60 336 139 439 b 163 658 199 529 163 586 b 497 939 163 825 325 939 b 738 729 626 939 738 851 b 581 481 738 624 674 532 b 690 299 646 440 690 376 m 557 292 b 414 421 557 365 500 421 b 193 228 315 421 193 347 b 342 100 193 157 253 100 b 557 292 450 100 557 174 m 607 707 b 476 822 607 778 557 822 b 293 651 378 822 293 743 b 417 538 293 585 343 538 b 607 707 506 538 607 604 "},"9":{"ha":742,"x_min":0,"x_max":0,"o":"m 121 67 b 536 425 299 136 458 254 b 324 339 478 375 415 339 b 83 582 189 339 83 436 b 428 939 83 764 228 939 b 715 639 611 939 715 803 b 164 -54 715 324 458 61 l 121 67 m 353 456 b 579 583 439 456 532 510 b 583 654 582 607 583 631 b 435 822 583 746 538 822 b 217 590 306 822 217 715 b 353 456 217 517 271 456 "},"\u0000":{"ha":0,"x_min":0,"x_max":0,"o":""},"\r":{"ha":694,"x_min":0,"x_max":0,"o":""}," ":{"ha":347,"x_min":0,"x_max":0,"o":""}," ":{"ha":347,"x_min":0,"x_max":0,"o":""},"'":{"ha":360,"x_min":0,"x_max":0,"o":"m 154 604 l 207 972 l 346 972 l 268 604 "},"\"":{"ha":663,"x_min":0,"x_max":0,"o":"m 154 604 l 207 972 l 346 972 l 268 604 m 457 604 l 510 972 l 649 972 l 571 604 "},"#":{"ha":1000,"x_min":0,"x_max":0,"o":"m 256 365 l 322 557 l 201 557 l 219 660 l 357 660 l 449 922 l 565 922 l 474 660 l 654 660 l 746 922 l 863 922 l 771 660 l 944 660 l 926 557 l 736 557 l 669 365 l 797 365 l 779 263 l 633 263 l 543 0 l 426 0 l 517 263 l 336 263 l 246 0 l 129 0 l 219 263 l 54 263 l 72 365 m 372 365 l 553 365 l 619 557 l 439 557 "},"&":{"ha":958,"x_min":0,"x_max":0,"o":"m 825 -26 l 689 118 b 393 -17 610 31 510 -17 b 76 278 217 -17 76 97 b 289 558 76 422 171 513 b 229 715 250 615 229 664 b 528 989 229 869 368 989 b 772 813 642 989 743 926 l 658 781 b 510 872 635 847 578 872 b 356 722 425 872 356 803 b 417 582 356 672 383 622 l 461 529 l 375 449 l 353 476 b 203 285 264 446 203 389 b 399 100 203 174 288 100 b 608 206 478 100 549 135 l 510 313 l 594 392 l 910 53 "},"*":{"ha":579,"x_min":0,"x_max":0,"o":"m 421 989 l 392 815 l 558 882 l 586 768 l 415 728 l 519 593 l 418 524 l 333 682 l 224 524 l 133 593 l 260 728 l 97 768 l 144 882 l 300 815 l 301 989 "},",":{"ha":347,"x_min":0,"x_max":0,"o":"m 86 -186 l -35 -186 l 96 161 l 239 161 "},"-":{"ha":639,"x_min":0,"x_max":0,"o":"m 128 331 l 149 444 l 510 444 l 489 331 "},".":{"ha":347,"x_min":0,"x_max":0,"o":"m 214 161 l 185 0 l 38 0 l 67 161 "},":":{"ha":347,"x_min":0,"x_max":0,"o":"m 132 533 l 161 694 l 308 694 l 279 533 m 214 161 l 185 0 l 38 0 l 67 161 "},";":{"ha":368,"x_min":0,"x_max":0,"o":"m 153 533 l 182 694 l 329 694 l 300 533 m 79 -186 l -42 -186 l 89 161 l 232 161 "},"?":{"ha":751,"x_min":0,"x_max":0,"o":"m 206 0 l 233 161 l 379 161 l 353 0 m 303 522 b 568 740 482 579 568 632 b 425 875 568 815 514 875 b 278 708 343 875 281 818 l 154 708 b 440 989 160 879 299 989 b 694 756 592 989 694 885 b 425 450 694 599 590 511 l 397 292 l 263 292 "},"!":{"ha":440,"x_min":0,"x_max":0,"o":"m 369 818 l 264 292 l 138 292 l 218 818 l 244 972 l 396 972 m 75 0 l 103 161 l 251 161 l 224 0 "},"¡":{"ha":440,"x_min":0,"x_max":0,"o":"m 56 -124 l 161 403 l 288 403 l 207 -124 l 181 -278 l 29 -278 m 350 694 l 322 533 l 174 533 l 201 694 "},"¿":{"ha":751,"x_min":0,"x_max":0,"o":"m 544 696 l 517 535 l 371 535 l 397 696 m 447 174 b 182 -44 268 117 182 64 b 325 -179 182 -119 236 -179 b 472 -12 407 -179 469 -122 l 596 -12 b 310 -293 590 -183 451 -293 b 56 -60 158 -293 56 -189 b 325 246 56 97 160 185 l 353 404 l 488 404 "},"@":{"ha":1111,"x_min":0,"x_max":0,"o":"m 713 -143 b 499 -193 644 -176 571 -193 b 61 243 247 -193 61 -3 b 574 764 61 531 292 764 b 1032 358 851 764 1032 592 b 793 18 1032 197 960 18 b 668 131 753 18 689 36 b 499 39 631 69 563 39 b 292 251 374 39 292 129 b 543 518 292 383 388 518 b 681 458 594 518 646 494 l 685 503 l 783 503 l 765 289 b 761 218 763 261 761 238 b 813 114 761 129 785 114 b 926 350 888 114 926 249 b 571 658 926 536 794 658 b 169 251 349 658 169 482 b 510 -87 169 56 311 -87 b 688 -46 572 -87 631 -72 l 713 -143 m 671 343 b 546 425 639 394 589 425 b 393 261 440 425 393 339 b 518 131 393 192 438 131 b 663 243 564 131 628 171 "},"A":{"ha":875,"x_min":0,"x_max":0,"o":"m 506 972 l 628 972 l 826 0 l 679 0 l 639 207 l 225 207 l 113 0 l -42 0 m 289 326 l 617 326 l 531 769 l 529 769 "},"B":{"ha":856,"x_min":0,"x_max":0,"o":"m 475 972 b 690 926 554 972 632 960 b 794 743 758 888 794 824 b 618 499 794 628 728 543 b 760 303 714 467 760 390 b 292 0 760 67 540 0 l 69 0 l 240 972 m 226 117 l 300 117 b 618 301 438 117 618 131 b 439 439 618 382 556 439 l 283 439 m 303 556 l 396 556 b 661 729 553 556 661 610 b 607 828 661 779 640 810 b 422 856 561 854 490 856 l 356 856 "},"C":{"ha":936,"x_min":0,"x_max":0,"o":"m 853 69 b 556 -17 769 15 668 -17 b 103 419 306 -17 103 172 b 656 989 103 724 331 989 b 943 889 765 989 865 951 l 863 788 b 650 869 808 838 735 869 b 244 425 403 869 244 661 b 561 103 244 253 376 103 b 783 171 647 103 722 128 "},"D":{"ha":1007,"x_min":0,"x_max":0,"o":"m 486 972 b 779 899 608 972 704 947 b 949 543 886 829 949 710 b 600 35 949 293 815 108 b 361 0 533 13 458 0 l 69 0 l 240 972 m 226 119 l 372 119 b 574 154 457 119 519 131 b 807 543 721 217 807 358 b 668 808 807 668 754 758 b 481 853 618 838 557 853 l 356 853 "},"E":{"ha":807,"x_min":0,"x_max":0,"o":"m 69 0 l 240 972 l 826 972 l 806 853 l 356 853 l 304 561 l 754 561 l 733 442 l 283 442 l 226 119 l 676 119 l 656 0 "},"F":{"ha":690,"x_min":0,"x_max":0,"o":"m 279 415 l 206 0 l 69 0 l 240 972 l 736 972 l 715 853 l 356 853 l 300 535 l 660 535 l 639 415 "},"G":{"ha":1082,"x_min":0,"x_max":0,"o":"m 842 419 l 597 419 l 618 539 l 999 539 l 928 133 b 556 -17 833 31 701 -17 b 103 419 306 -17 103 172 b 656 989 103 724 331 989 b 1019 815 800 989 933 925 l 910 733 b 650 869 851 817 760 869 b 244 425 403 869 244 661 b 561 103 244 253 376 103 b 800 182 656 103 726 129 "},"H":{"ha":1044,"x_min":0,"x_max":0,"o":"m 715 0 l 793 442 l 283 442 l 206 0 l 69 0 l 240 972 l 376 972 l 304 561 l 814 561 l 886 972 l 1022 972 l 851 0 "},"I":{"ha":399,"x_min":0,"x_max":0,"o":"m 69 0 l 240 972 l 376 972 l 206 0 "},"J":{"ha":510,"x_min":0,"x_max":0,"o":"m 17 131 b 122 103 50 115 83 103 b 197 142 158 103 182 117 b 233 263 217 172 225 215 l 358 972 l 494 972 l 367 246 b 308 74 356 181 340 121 b 119 -17 271 18 210 -17 b -35 22 67 -17 11 0 "},"K":{"ha":860,"x_min":0,"x_max":0,"o":"m 292 493 l 772 972 l 947 972 l 553 585 l 790 0 l 644 0 l 451 485 l 257 293 l 206 0 l 69 0 l 240 972 l 376 972 "},"L":{"ha":718,"x_min":0,"x_max":0,"o":"m 69 0 l 240 972 l 376 972 l 226 119 l 649 119 l 628 0 "},"M":{"ha":1282,"x_min":0,"x_max":0,"o":"m 531 0 l 349 821 l 204 0 l 69 0 l 240 972 l 449 972 l 611 213 l 1046 972 l 1260 972 l 1089 0 l 954 0 l 1100 821 l 624 0 "},"N":{"ha":1042,"x_min":0,"x_max":0,"o":"m 739 0 l 333 728 l 206 0 l 69 0 l 240 972 l 349 972 l 756 244 l 883 972 l 1019 972 l 849 0 "},"O":{"ha":1164,"x_min":0,"x_max":0,"o":"m 244 425 b 561 103 244 253 376 103 b 967 547 808 103 967 311 b 650 869 967 719 835 869 b 244 425 403 869 244 661 m 103 419 b 656 989 103 724 331 989 b 1108 553 906 989 1108 800 b 556 -17 1108 249 881 -17 b 103 419 306 -17 103 172 "},"P":{"ha":828,"x_min":0,"x_max":0,"o":"m 485 972 b 828 722 668 972 828 915 b 408 389 828 472 632 389 l 274 389 l 206 0 l 69 0 l 240 972 m 294 508 l 406 508 b 686 700 543 508 686 549 b 464 853 686 825 600 853 l 356 853 "},"Q":{"ha":1164,"x_min":0,"x_max":0,"o":"m 103 419 b 656 989 103 724 331 989 b 1108 553 906 989 1108 800 b 903 106 1108 375 1032 211 l 1001 -12 l 910 -89 l 801 40 b 556 -17 728 4 646 -17 b 103 419 306 -17 103 172 m 244 425 b 561 103 244 253 376 103 b 721 136 619 103 672 115 l 597 283 l 689 360 l 822 201 b 967 547 914 285 967 411 b 650 869 967 719 835 869 b 244 425 403 869 244 661 "},"R":{"ha":851,"x_min":0,"x_max":0,"o":"m 461 972 b 685 939 560 972 629 963 b 817 731 764 904 817 840 b 607 439 817 568 731 479 b 526 419 582 431 556 424 l 756 0 l 603 0 l 381 411 l 278 411 l 206 0 l 69 0 l 240 972 m 299 531 l 393 531 b 575 560 465 531 526 538 b 675 711 633 586 675 632 b 626 819 675 764 657 797 b 443 853 589 846 533 853 l 356 853 "},"S":{"ha":838,"x_min":0,"x_max":0,"o":"m 118 224 b 382 103 196 131 281 103 b 583 289 478 103 583 174 b 394 463 583 392 492 425 b 171 703 286 504 171 551 b 494 989 171 889 346 989 b 808 865 613 989 738 940 l 719 779 b 488 869 665 836 596 869 b 304 724 396 869 304 815 b 507 565 304 632 404 607 b 726 285 615 521 726 458 b 371 -17 726 115 564 -17 b 24 138 229 -17 118 24 "},"T":{"ha":678,"x_min":0,"x_max":0,"o":"m 210 0 l 360 853 l 117 853 l 138 972 l 760 972 l 739 853 l 496 853 l 346 0 "},"U":{"ha":1003,"x_min":0,"x_max":0,"o":"m 369 972 l 272 422 b 263 321 267 389 263 354 b 479 103 263 179 353 103 b 683 224 565 103 636 144 b 753 422 715 276 739 343 l 850 972 l 986 972 l 896 457 b 801 161 875 338 846 239 b 475 -17 732 42 617 -17 b 128 300 281 -17 128 78 b 143 457 128 351 133 404 l 233 972 "},"V":{"ha":882,"x_min":0,"x_max":0,"o":"m 263 972 l 411 203 l 413 203 l 829 972 l 983 972 l 436 0 l 314 0 l 115 972 "},"W":{"ha":1246,"x_min":0,"x_max":0,"o":"m 889 0 l 753 0 l 689 740 l 686 740 l 344 0 l 214 0 l 115 972 l 258 972 l 324 239 l 326 239 l 660 972 l 788 972 l 853 239 l 856 239 l 1189 972 l 1336 972 "},"X":{"ha":913,"x_min":0,"x_max":0,"o":"m 465 382 l 126 0 l -54 0 l 396 501 l 138 972 l 300 972 l 504 603 l 835 972 l 1015 972 l 571 485 l 840 0 l 678 0 "},"Y":{"ha":772,"x_min":0,"x_max":0,"o":"m 269 972 l 415 564 l 419 564 l 706 972 l 869 972 l 460 417 l 386 0 l 250 0 l 325 429 l 115 972 "},"Z":{"ha":772,"x_min":0,"x_max":0,"o":"m 694 119 l 682 0 l 21 0 l 35 111 l 596 853 l 168 853 l 179 972 l 800 972 l 794 894 l 208 119 "},"a":{"ha":753,"x_min":0,"x_max":0,"o":"m 133 642 b 413 711 211 682 319 711 b 668 490 582 711 668 628 b 661 422 668 469 665 446 l 586 0 l 464 0 l 475 58 b 272 -17 421 7 351 -17 b 50 182 156 -17 50 47 b 382 426 50 357 233 426 b 531 408 428 426 478 419 l 538 443 b 542 482 540 457 542 469 b 389 601 542 565 467 601 b 164 540 314 601 235 576 l 133 642 m 514 314 b 376 331 469 325 421 331 b 176 196 296 331 176 299 b 304 89 176 124 240 89 b 488 163 374 89 433 124 "},"b":{"ha":869,"x_min":0,"x_max":0,"o":"m 56 0 l 240 1042 l 368 1042 l 292 614 b 514 711 349 676 436 711 b 814 400 671 711 814 588 b 424 -17 814 188 658 -17 b 199 92 322 -17 242 31 l 183 0 m 479 594 b 271 492 415 594 325 560 l 224 229 b 426 100 267 151 336 100 b 685 378 583 100 685 240 b 479 594 685 496 619 594 "},"c":{"ha":668,"x_min":0,"x_max":0,"o":"m 594 51 b 385 -17 535 8 463 -17 b 56 297 203 -17 56 111 b 440 711 56 513 222 711 b 661 632 525 711 603 682 l 583 532 b 436 594 547 571 494 594 b 185 306 286 594 185 457 b 388 100 185 193 271 100 b 522 143 439 100 485 117 "},"d":{"ha":868,"x_min":0,"x_max":0,"o":"m 563 0 l 576 79 b 356 -17 519 17 432 -17 b 56 294 199 -17 56 107 b 446 711 56 507 211 711 b 669 603 547 711 625 664 l 747 1042 l 875 1042 l 690 0 m 390 100 b 599 206 454 100 544 136 l 644 464 b 443 594 601 543 533 594 b 185 317 286 594 185 454 b 390 100 185 199 250 100 "},"e":{"ha":788,"x_min":0,"x_max":0,"o":"m 185 315 b 200 218 185 283 188 250 b 374 92 228 142 292 92 b 585 206 456 92 536 136 l 676 131 b 367 -17 592 31 488 -17 b 56 297 192 -17 56 108 b 431 711 56 510 217 711 b 732 422 618 711 732 596 b 715 315 732 389 725 344 m 431 603 b 203 417 318 603 238 519 l 601 417 b 603 435 603 422 603 429 b 431 603 603 526 531 603 "},"f":{"ha":469,"x_min":0,"x_max":0,"o":"m 313 583 l 210 0 l 82 0 l 185 583 l 106 583 l 125 694 l 204 694 l 222 792 b 476 1058 251 949 308 1058 b 625 1028 528 1058 581 1047 l 582 924 b 482 942 554 936 518 942 b 349 782 394 942 367 888 l 333 694 l 517 694 l 497 583 "},"g":{"ha":861,"x_min":0,"x_max":0,"o":"m 646 465 b 443 594 603 543 533 594 b 185 325 286 594 185 463 b 390 117 185 207 250 117 b 603 222 454 117 549 154 m 693 14 b 526 -268 668 -126 617 -218 b 333 -311 475 -296 411 -311 b -6 -197 208 -311 96 -267 l 63 -92 b 354 -194 147 -156 243 -194 b 471 -168 403 -194 440 -186 b 563 -8 518 -140 549 -87 l 581 97 b 356 0 524 35 435 0 b 56 303 199 0 56 115 b 446 711 56 515 211 711 b 671 603 547 711 628 664 l 686 694 l 814 694 "},"h":{"ha":842,"x_min":0,"x_max":0,"o":"m 56 0 l 240 1042 l 368 1042 l 288 586 b 529 711 351 663 428 711 b 747 481 668 711 747 624 b 736 361 747 440 743 399 l 672 0 l 544 0 l 607 354 b 621 463 613 389 621 426 b 492 594 621 553 578 594 b 265 464 403 594 322 533 l 183 0 "},"i":{"ha":361,"x_min":0,"x_max":0,"o":"m 203 831 l 228 972 l 356 972 l 331 831 m 183 0 l 56 0 l 179 694 l 307 694 "},"j":{"ha":372,"x_min":0,"x_max":0,"o":"m 340 831 l 213 831 l 238 972 l 365 972 m 186 -43 b -36 -308 160 -194 125 -308 b -193 -262 -96 -308 -133 -293 l -139 -158 b -56 -192 -110 -182 -78 -192 b 28 -142 -15 -192 11 -171 b 60 -33 44 -112 53 -74 l 189 694 l 317 694 "},"k":{"ha":713,"x_min":0,"x_max":0,"o":"m 368 1042 l 246 354 l 247 353 l 582 694 l 750 694 l 454 406 l 644 0 l 501 0 l 360 313 l 214 171 l 183 0 l 56 0 l 240 1042 "},"l":{"ha":361,"x_min":0,"x_max":0,"o":"m 56 0 l 240 1042 l 368 1042 l 183 0 "},"m":{"ha":1278,"x_min":0,"x_max":0,"o":"m 307 694 l 288 585 b 510 711 351 661 424 711 b 708 567 607 711 681 658 b 972 711 797 674 882 711 b 1183 481 1097 711 1183 624 b 1172 361 1183 440 1179 399 l 1108 0 l 981 0 l 1043 354 b 1057 463 1049 389 1057 426 b 942 594 1057 553 1014 594 b 721 456 860 594 785 533 b 710 361 719 424 715 390 l 646 0 l 518 0 l 581 354 b 594 463 586 389 594 426 b 479 594 594 553 551 594 b 267 467 399 594 328 536 l 183 0 l 56 0 l 179 694 "},"n":{"ha":842,"x_min":0,"x_max":0,"o":"m 288 588 b 529 711 351 663 428 711 b 747 481 668 711 747 624 b 736 361 747 440 743 399 l 672 0 l 544 0 l 607 354 b 621 463 613 389 621 426 b 492 594 621 553 578 594 b 267 467 404 594 326 536 l 183 0 l 56 0 l 179 694 l 307 694 "},"o":{"ha":814,"x_min":0,"x_max":0,"o":"m 56 297 b 435 711 56 514 218 711 b 758 397 617 711 758 582 b 379 -17 758 181 596 -17 b 56 297 197 -17 56 113 m 629 389 b 431 594 629 501 547 594 b 185 306 281 594 185 458 b 383 100 185 193 267 100 b 629 389 533 100 629 236 "},"p":{"ha":868,"x_min":0,"x_max":0,"o":"m 306 694 l 292 615 b 513 711 349 678 436 711 b 813 400 669 711 813 588 b 422 -17 813 188 657 -17 b 199 92 321 -17 243 31 l 121 -347 l -7 -347 l 178 694 m 478 594 b 269 489 414 594 324 558 l 224 231 b 425 100 267 151 335 100 b 683 378 582 100 683 240 b 478 594 683 496 618 594 "},"q":{"ha":869,"x_min":0,"x_max":0,"o":"m 814 694 l 629 -347 l 501 -347 l 578 81 b 356 -17 521 18 433 -17 b 56 294 199 -17 56 107 b 446 711 56 507 211 711 b 671 603 547 711 628 664 l 686 694 m 390 100 b 599 203 454 100 544 135 l 646 465 b 443 594 603 543 533 594 b 185 317 286 594 185 454 b 390 100 185 199 250 100 "},"r":{"ha":508,"x_min":0,"x_max":0,"o":"m 56 0 l 179 694 l 307 694 l 289 593 b 483 711 332 663 399 711 b 557 703 513 711 531 708 l 508 568 b 446 582 490 578 472 582 b 268 476 365 582 308 546 l 183 0 "},"s":{"ha":606,"x_min":0,"x_max":0,"o":"m 101 178 b 264 89 138 126 197 89 b 383 197 325 89 383 128 b 244 319 383 261 314 285 b 104 500 175 354 104 397 b 339 711 104 638 231 711 b 567 624 425 711 515 678 l 478 543 b 336 606 447 574 388 606 b 225 511 281 606 225 574 b 367 393 225 454 296 429 b 513 201 439 356 513 307 b 251 -17 513 57 381 -17 b 10 110 151 -17 57 25 "},"t":{"ha":492,"x_min":0,"x_max":0,"o":"m 186 694 l 215 861 l 343 861 l 314 694 l 506 694 l 486 583 l 294 583 l 236 260 b 228 178 231 225 228 201 b 310 99 228 128 258 99 b 385 119 328 99 360 104 l 411 18 b 276 -14 381 -1 322 -14 b 97 158 171 -14 97 60 b 107 249 97 189 101 217 l 167 583 l 72 583 l 92 694 "},"u":{"ha":842,"x_min":0,"x_max":0,"o":"m 554 107 b 313 -17 490 32 414 -17 b 94 214 174 -17 94 71 b 106 333 94 254 99 296 l 169 694 l 297 694 l 235 340 b 221 232 229 306 221 268 b 350 100 221 142 264 100 b 575 228 438 100 515 158 l 658 694 l 786 694 l 663 0 l 535 0 "},"v":{"ha":656,"x_min":0,"x_max":0,"o":"m 282 169 l 561 694 l 704 694 l 313 0 l 196 0 l 56 694 l 190 694 l 279 169 "},"w":{"ha":996,"x_min":0,"x_max":0,"o":"m 729 0 l 585 0 l 533 540 l 531 540 l 283 0 l 132 0 l 64 694 l 196 694 l 235 147 l 238 147 l 489 694 l 629 694 l 672 147 l 676 147 l 915 694 l 1051 694 "},"x":{"ha":681,"x_min":0,"x_max":0,"o":"m -53 0 l 271 353 l 93 694 l 242 694 l 365 444 l 576 694 l 750 694 l 431 346 l 610 0 l 461 0 l 335 254 l 119 0 "},"y":{"ha":654,"x_min":0,"x_max":0,"o":"m 564 694 l 708 694 l 143 -317 l 38 -262 l 192 17 l 56 694 l 190 694 l 281 160 l 283 160 "},"z":{"ha":614,"x_min":0,"x_max":0,"o":"m 26 75 l 411 583 l 104 583 l 115 694 l 604 694 l 600 639 l 200 111 l 526 111 l 515 0 l 21 0 "},"[":{"ha":432,"x_min":0,"x_max":0,"o":"m 26 -236 l 253 1042 l 547 1042 l 528 933 l 349 933 l 161 -131 l 340 -131 l 321 -236 "},"]":{"ha":432,"x_min":0,"x_max":0,"o":"m -82 -236 l -62 -131 l 115 -131 l 303 933 l 124 933 l 143 1042 l 438 1042 l 211 -236 "},"(":{"ha":479,"x_min":0,"x_max":0,"o":"m 331 -239 b 72 308 164 -101 72 90 b 563 1085 72 701 286 946 l 607 994 b 197 307 389 890 197 651 b 397 -158 197 136 271 -50 "},")":{"ha":479,"x_min":0,"x_max":0,"o":"m 181 1086 b 439 539 347 949 439 757 b -51 -237 439 146 225 -99 l -96 -147 b 314 540 122 -43 314 196 b 114 1006 314 711 240 897 "},"{":{"ha":432,"x_min":0,"x_max":0,"o":"m 322 -251 b 286 -253 310 -253 299 -253 b 78 -24 160 -253 78 -151 b 83 38 78 -4 79 17 b 115 243 114 207 115 226 b 35 375 115 311 94 363 l 53 489 b 199 706 135 507 174 593 l 218 796 b 511 1058 256 972 346 1058 b 553 1057 525 1058 539 1058 l 533 947 b 499 950 521 949 511 950 b 326 758 379 950 351 885 l 308 668 b 175 421 286 560 243 469 b 235 258 214 382 235 325 b 206 75 235 239 233 232 b 199 6 201 51 199 28 b 313 -144 199 -74 235 -144 b 342 -143 322 -144 332 -144 "},"}":{"ha":432,"x_min":0,"x_max":0,"o":"m 149 1057 b 185 1058 161 1058 172 1058 b 393 829 311 1058 393 957 b 388 768 393 810 392 789 b 356 563 357 599 356 579 b 436 431 356 494 376 443 l 418 317 b 272 100 336 299 297 213 l 253 10 b -40 -253 215 -167 125 -253 b -82 -251 -54 -253 -68 -253 l -62 -142 b -28 -144 -50 -143 -40 -144 b 144 47 92 -144 119 -79 l 163 138 b 296 385 185 246 228 336 b 236 547 257 424 236 481 b 265 731 236 567 238 574 b 272 800 269 754 272 778 b 158 950 272 879 236 950 b 129 949 149 950 139 950 "},"\\":{"ha":504,"x_min":0,"x_max":0,"o":"m 307 -74 l 92 1038 l 194 1058 l 410 -51 "},"/":{"ha":526,"x_min":0,"x_max":0,"o":"m 25 -74 l -69 -28 l 524 1058 l 618 1013 "},"¦":{"ha":442,"x_min":0,"x_max":0,"o":"m 250 243 l 158 -278 l 47 -278 l 139 243 m 188 521 l 279 1042 l 390 1042 l 299 521 "},"|":{"ha":442,"x_min":0,"x_max":0,"o":"m 39 -236 l 290 1192 l 401 1192 l 150 -236 "},"§":{"ha":764,"x_min":0,"x_max":0,"o":"m 119 -1 b 314 -89 172 -61 235 -89 b 492 50 406 -89 492 -43 b 293 174 492 117 392 139 b 96 374 194 208 96 257 b 257 600 96 474 163 557 b 176 743 210 633 176 676 b 458 989 176 897 317 989 b 681 921 550 989 618 971 l 614 835 b 449 883 569 867 510 883 b 301 768 365 883 301 836 b 499 638 301 697 400 672 b 700 440 599 603 700 557 b 542 210 700 332 632 249 b 624 67 589 178 624 135 b 313 -194 624 -112 468 -194 b 39 -96 210 -194 113 -171 m 365 547 b 229 401 290 531 229 467 b 435 261 229 322 333 297 b 568 411 501 282 568 335 b 365 547 568 482 465 508 "},"©":{"ha":1111,"x_min":0,"x_max":0,"o":"m 76 463 b 556 942 76 728 290 942 b 1035 463 821 942 1035 728 b 556 -17 1035 197 821 -17 b 76 463 290 -17 76 197 m 182 463 b 556 86 182 256 349 86 b 929 463 763 86 929 256 b 556 839 929 669 763 839 b 182 463 349 839 182 669 m 407 463 b 565 297 407 356 474 297 b 667 332 597 297 635 308 l 719 251 b 569 203 675 222 624 203 b 299 463 421 203 299 304 b 569 721 299 610 419 721 b 710 679 619 721 668 706 l 661 599 b 565 626 632 614 596 626 b 407 463 474 626 407 558 "},"®":{"ha":799,"x_min":0,"x_max":0,"o":"m 118 672 b 440 996 118 851 263 996 b 764 672 619 996 764 851 b 440 350 764 494 619 350 b 118 672 263 350 118 494 m 201 672 b 440 431 201 540 308 431 b 681 672 574 431 681 540 b 440 915 681 807 574 915 b 201 672 308 915 201 807 m 403 839 b 561 738 514 839 561 808 b 494 642 561 694 536 657 l 596 504 l 504 504 l 414 631 l 396 631 l 396 504 l 321 504 l 321 839 m 483 735 b 396 778 483 769 465 778 l 396 692 b 483 735 450 692 483 696 "},"™":{"ha":1363,"x_min":0,"x_max":0,"o":"m 383 881 l 300 408 l 196 408 l 279 881 l 143 881 l 158 972 l 535 972 l 519 881 m 915 408 l 818 408 l 717 854 l 639 408 l 535 408 l 632 972 l 792 972 l 883 539 l 1131 972 l 1300 972 l 1201 408 l 1097 408 l 1175 856 "},"ª":{"ha":532,"x_min":0,"x_max":0,"o":"m 374 576 b 235 525 329 538 283 525 b 83 660 154 525 83 568 b 310 826 83 779 208 826 b 411 814 340 826 374 822 l 414 831 b 418 869 417 844 418 861 b 339 935 418 913 394 935 b 176 890 276 935 218 913 l 151 974 b 353 1019 213 1001 288 1019 b 517 871 467 1019 517 961 b 513 818 517 854 515 836 l 463 536 l 375 536 l 374 576 m 267 604 b 382 644 310 604 349 621 l 400 749 b 315 757 372 754 342 757 b 183 671 263 757 183 738 b 267 604 183 625 225 604 "},"º":{"ha":578,"x_min":0,"x_max":0,"o":"m 90 739 b 357 1019 90 886 204 1019 b 585 806 485 1019 585 931 b 318 525 585 658 471 525 b 90 739 190 525 90 614 m 482 799 b 353 929 482 871 428 929 b 193 746 254 929 193 843 b 322 615 193 674 247 615 b 482 799 421 615 482 701 "},"«":{"ha":736,"x_min":0,"x_max":0,"o":"m 640 654 l 700 554 l 479 374 l 631 200 l 557 100 l 386 294 l 404 460 m 333 654 l 393 554 l 172 374 l 324 200 l 250 100 l 79 294 l 97 460 "},"»":{"ha":736,"x_min":0,"x_max":0,"o":"m 89 100 l 29 200 l 250 381 l 99 554 l 172 654 l 343 460 l 325 294 m 396 100 l 336 200 l 557 381 l 406 554 l 479 654 l 650 460 l 632 294 "},"‹":{"ha":429,"x_min":0,"x_max":0,"o":"m 333 654 l 393 554 l 172 374 l 324 200 l 250 100 l 79 294 l 97 460 "},"›":{"ha":429,"x_min":0,"x_max":0,"o":"m 89 100 l 29 200 l 250 381 l 99 554 l 172 654 l 343 460 l 325 294 "},"‘":{"ha":379,"x_min":0,"x_max":0,"o":"m 275 972 l 396 972 l 265 625 l 122 625 "},"’":{"ha":379,"x_min":0,"x_max":0,"o":"m 243 625 l 122 625 l 253 972 l 396 972 "},"‚":{"ha":379,"x_min":0,"x_max":0,"o":"m 118 -186 l -3 -186 l 128 161 l 271 161 "},"“":{"ha":671,"x_min":0,"x_max":0,"o":"m 567 972 l 688 972 l 557 625 l 414 625 m 275 972 l 396 972 l 265 625 l 122 625 "},"”":{"ha":671,"x_min":0,"x_max":0,"o":"m 229 625 l 108 625 l 239 972 l 382 972 m 521 625 l 400 625 l 531 972 l 674 972 "},"„":{"ha":671,"x_min":0,"x_max":0,"o":"m 118 -186 l -3 -186 l 128 161 l 271 161 m 410 -186 l 289 -186 l 419 161 l 563 161 "},"†":{"ha":572,"x_min":0,"x_max":0,"o":"m 192 735 l 288 731 l 314 906 l 325 972 l 421 972 l 410 906 l 372 731 l 471 735 l 521 735 l 504 643 l 454 643 l 358 647 l 322 415 l 283 192 l 188 192 l 226 415 l 274 647 l 175 643 l 125 643 l 142 735 "},"‡":{"ha":572,"x_min":0,"x_max":0,"o":"m 167 586 l 263 582 l 267 614 l 279 685 l 290 746 l 194 743 l 144 743 l 161 835 l 211 835 l 306 831 l 318 922 l 326 972 l 422 972 l 414 922 l 393 831 l 490 835 l 540 835 l 524 743 l 474 743 l 378 746 l 369 685 l 357 614 l 350 582 l 446 586 l 496 586 l 479 494 l 429 494 l 335 497 l 319 390 l 285 192 l 189 192 l 224 390 l 247 497 l 150 494 l 100 494 l 117 586 "},"•":{"ha":442,"x_min":0,"x_max":0,"o":"m 49 401 b 221 574 49 497 125 574 b 393 401 317 574 393 497 b 221 229 393 306 317 229 b 49 401 125 229 49 306 "},"·":{"ha":347,"x_min":0,"x_max":0,"o":"m 86 360 l 115 521 l 263 521 l 233 360 "},"…":{"ha":1042,"x_min":0,"x_max":0,"o":"m 214 161 l 185 0 l 38 0 l 67 161 m 561 161 l 532 0 l 385 0 l 414 161 m 908 161 l 879 0 l 732 0 l 761 161 "},"¶":{"ha":764,"x_min":0,"x_max":0,"o":"m 424 -243 l 639 972 l 774 972 l 558 -243 m 343 -243 l 208 -243 l 321 394 b 79 651 196 415 79 492 b 450 972 79 879 282 972 l 558 972 m 403 854 b 214 665 301 844 214 793 b 343 517 214 575 271 528 "},"­":{"ha":639,"x_min":0,"x_max":0,"o":"m 128 331 l 149 444 l 510 444 l 489 331 "},"–":{"ha":833,"x_min":0,"x_max":0,"o":"m 64 371 l 85 486 l 779 486 l 758 371 "},"—":{"ha":1250,"x_min":0,"x_max":0,"o":"m 64 371 l 85 486 l 1196 486 l 1175 371 "},"$":{"ha":764,"x_min":0,"x_max":0,"o":"m 93 211 b 344 96 168 124 247 96 b 538 274 438 96 538 163 b 356 438 538 371 450 403 b 143 667 251 475 143 522 b 442 938 143 839 301 933 l 465 1069 l 554 1069 l 529 931 b 749 821 615 915 697 875 l 664 739 b 444 825 613 793 547 825 b 271 686 357 825 271 774 b 463 536 271 599 367 576 b 668 269 564 493 668 435 b 369 -15 668 118 535 0 l 346 -147 l 257 -147 l 281 -14 b 4 129 171 -6 81 36 "},"€":{"ha":903,"x_min":0,"x_max":0,"o":"m 274 519 b 260 406 264 482 260 444 l 664 406 l 646 303 l 276 303 b 561 103 317 188 424 103 b 771 167 642 103 713 128 l 838 65 b 556 -17 758 14 661 -17 b 136 303 351 -17 181 115 l 7 303 l 24 406 l 125 406 b 138 519 125 444 129 482 l 44 519 l 63 622 l 171 622 b 650 939 250 806 425 939 b 924 843 754 939 849 903 l 847 742 b 644 819 794 788 725 819 b 314 622 493 819 378 738 l 703 622 l 685 519 "},"¢":{"ha":764,"x_min":0,"x_max":0,"o":"m 656 143 b 444 75 596 100 524 75 l 424 -44 l 335 -44 l 358 85 b 117 389 219 119 117 233 b 485 803 117 599 275 793 l 506 922 l 594 922 l 572 796 b 722 724 629 785 681 758 l 644 624 b 497 686 608 663 556 686 b 246 397 347 686 246 549 b 449 192 246 285 332 192 b 583 235 500 192 546 208 "},"£":{"ha":733,"x_min":0,"x_max":0,"o":"m 67 119 l 147 119 l 204 439 l 126 439 l 144 556 l 225 556 l 238 631 b 285 775 246 679 261 732 b 550 939 338 875 435 939 b 750 888 624 939 699 921 l 688 782 b 549 822 649 808 600 822 b 399 726 481 822 428 788 b 360 596 381 689 368 640 l 353 556 l 538 556 l 519 439 l 332 439 l 275 119 l 631 119 l 613 0 l 49 0 "},"¥":{"ha":764,"x_min":0,"x_max":0,"o":"m 249 0 l 278 164 l 40 164 l 58 267 l 296 267 l 311 356 l 74 356 l 92 458 l 301 458 l 124 922 l 264 922 l 406 535 l 410 535 l 681 922 l 836 922 l 493 458 l 694 458 l 676 356 l 440 356 l 425 267 l 661 267 l 643 164 l 407 164 l 378 0 "},"ƒ":{"ha":764,"x_min":0,"x_max":0,"o":"m 401 439 l 256 -65 b 28 -294 222 -181 167 -294 b -83 -278 -11 -294 -49 -287 l -46 -168 b 22 -178 -26 -174 -3 -178 b 131 -39 100 -178 111 -104 l 269 439 l 157 439 l 178 556 l 303 556 l 347 710 b 600 939 385 842 456 939 b 775 894 663 939 721 921 l 715 789 b 599 822 683 811 642 822 b 472 683 518 822 494 760 l 435 556 l 604 556 l 583 439 "},"№":{"ha":1611,"x_min":0,"x_max":0,"o":"m 732 0 l 326 728 l 199 0 l 63 0 l 233 972 l 342 972 l 749 244 l 876 972 l 1013 972 l 842 0 m 1092 711 b 1358 992 1092 858 1206 992 b 1586 778 1486 992 1586 903 b 1319 497 1586 631 1472 497 b 1092 711 1192 497 1092 586 m 1483 771 b 1354 901 1483 843 1429 901 b 1194 718 1256 901 1194 815 b 1324 588 1194 646 1249 588 b 1483 771 1422 588 1483 674 "},"¤":{"ha":764,"x_min":0,"x_max":0,"o":"m 754 697 l 668 622 b 701 493 689 585 701 540 b 617 276 701 415 669 338 l 676 206 l 597 135 l 536 207 b 360 151 485 174 424 151 b 190 208 294 151 236 172 l 106 135 l 43 206 l 129 281 b 96 410 108 318 96 361 b 181 626 96 486 128 565 l 121 697 l 200 768 l 261 696 b 438 751 313 729 374 751 b 607 694 501 751 561 731 l 692 768 m 360 258 b 593 488 475 258 593 364 b 438 644 593 576 528 644 b 204 415 322 644 204 539 b 360 258 204 326 269 258 "},"À":{"ha":875,"x_min":0,"x_max":0,"o":"m 506 972 l 628 972 l 826 0 l 679 0 l 639 207 l 225 207 l 113 0 l -42 0 m 289 326 l 617 326 l 531 769 l 529 769 m 392 1207 l 479 1300 l 681 1103 l 611 1028 "},"Á":{"ha":875,"x_min":0,"x_max":0,"o":"m 506 972 l 628 972 l 826 0 l 679 0 l 639 207 l 225 207 l 113 0 l -42 0 m 289 326 l 617 326 l 531 769 l 529 769 m 554 1032 l 503 1108 l 753 1290 l 819 1194 "},"Â":{"ha":875,"x_min":0,"x_max":0,"o":"m 506 972 l 628 972 l 826 0 l 679 0 l 639 207 l 225 207 l 113 0 l -42 0 m 289 326 l 617 326 l 531 769 l 529 769 m 689 1281 l 803 1094 l 721 1036 l 607 1197 l 438 1036 l 371 1094 l 557 1281 "},"Ã":{"ha":875,"x_min":0,"x_max":0,"o":"m 506 972 l 628 972 l 826 0 l 679 0 l 639 207 l 225 207 l 113 0 l -42 0 m 289 326 l 617 326 l 531 769 l 529 769 m 349 1071 l 349 1088 b 500 1236 349 1167 407 1236 b 615 1192 550 1236 586 1215 b 696 1144 644 1169 669 1144 b 753 1204 731 1144 753 1169 l 843 1208 l 843 1192 b 692 1043 843 1113 785 1043 b 576 1088 642 1043 606 1064 b 496 1135 547 1110 522 1135 b 439 1075 461 1135 439 1110 "},"Ä":{"ha":875,"x_min":0,"x_max":0,"o":"m 506 972 l 628 972 l 826 0 l 679 0 l 639 207 l 225 207 l 113 0 l -42 0 m 289 326 l 617 326 l 531 769 l 529 769 m 699 1061 l 725 1215 l 867 1215 l 840 1061 m 324 1061 l 350 1215 l 492 1215 l 465 1061 "},"Å":{"ha":875,"x_min":0,"x_max":0,"o":"m 506 972 l 628 972 l 826 0 l 679 0 l 639 207 l 225 207 l 113 0 l -42 0 m 289 326 l 617 326 l 531 769 l 529 769 m 465 1138 b 594 1267 465 1208 524 1267 b 724 1138 665 1267 724 1208 b 594 1008 724 1067 665 1008 b 465 1138 524 1008 465 1067 m 533 1138 b 594 1076 533 1104 561 1076 b 656 1138 628 1076 656 1104 b 594 1199 656 1171 628 1199 b 533 1138 561 1199 533 1171 "},"Ǻ":{"ha":875,"x_min":0,"x_max":0,"o":"m 551 1261 l 511 1335 l 776 1494 l 831 1400 m 465 1125 b 594 1254 465 1196 524 1254 b 724 1125 665 1254 724 1196 b 594 996 724 1054 665 996 b 465 1125 524 996 465 1054 m 533 1125 b 594 1064 533 1092 561 1064 b 656 1125 628 1064 656 1092 b 594 1186 656 1158 628 1186 b 533 1125 561 1186 533 1158 m 506 972 l 628 972 l 826 0 l 679 0 l 639 207 l 225 207 l 113 0 l -42 0 m 289 326 l 617 326 l 531 769 l 529 769 "},"Æ":{"ha":1408,"x_min":0,"x_max":0,"o":"m 671 0 l 707 207 l 310 207 l 128 0 l -56 0 l 831 972 l 1428 972 l 1407 853 l 957 853 l 906 561 l 1356 561 l 1335 442 l 885 442 l 828 119 l 1278 119 l 1257 0 m 415 326 l 728 326 l 806 769 "},"Ǽ":{"ha":1408,"x_min":0,"x_max":0,"o":"m 671 0 l 707 207 l 310 207 l 128 0 l -56 0 l 831 972 l 1428 972 l 1407 853 l 957 853 l 906 561 l 1356 561 l 1335 442 l 885 442 l 828 119 l 1278 119 l 1257 0 m 415 326 l 728 326 l 806 769 m 925 1032 l 874 1108 l 1124 1290 l 1190 1194 "},"Ç":{"ha":936,"x_min":0,"x_max":0,"o":"m 853 69 b 556 -17 769 15 668 -17 b 467 -8 525 -17 496 -14 l 421 -90 l 422 -92 b 492 -69 446 -76 469 -69 b 593 -179 549 -69 593 -117 b 425 -340 593 -261 511 -340 b 285 -258 367 -340 313 -318 l 371 -219 b 431 -264 378 -247 399 -264 b 499 -189 468 -264 499 -229 b 447 -137 499 -160 479 -137 b 388 -171 425 -137 400 -149 l 308 -125 l 394 11 b 103 419 224 72 103 228 b 656 989 103 724 331 989 b 943 889 765 989 865 951 l 863 788 b 650 869 808 838 735 869 b 244 425 403 869 244 661 b 561 103 244 253 376 103 b 783 171 647 103 722 128 "},"È":{"ha":807,"x_min":0,"x_max":0,"o":"m 69 0 l 240 972 l 826 972 l 806 853 l 356 853 l 304 561 l 754 561 l 733 442 l 283 442 l 226 119 l 676 119 l 656 0 m 379 1207 l 467 1300 l 668 1103 l 599 1028 "},"É":{"ha":807,"x_min":0,"x_max":0,"o":"m 69 0 l 240 972 l 826 972 l 806 853 l 356 853 l 304 561 l 754 561 l 733 442 l 283 442 l 226 119 l 676 119 l 656 0 m 503 1032 l 451 1108 l 701 1290 l 768 1194 "},"Ê":{"ha":807,"x_min":0,"x_max":0,"o":"m 69 0 l 240 972 l 826 972 l 806 853 l 356 853 l 304 561 l 754 561 l 733 442 l 283 442 l 226 119 l 676 119 l 656 0 m 663 1281 l 776 1094 l 694 1036 l 581 1197 l 411 1036 l 344 1094 l 531 1281 "},"Ë":{"ha":807,"x_min":0,"x_max":0,"o":"m 647 1061 l 674 1215 l 815 1215 l 789 1061 m 328 1061 l 354 1215 l 496 1215 l 469 1061 m 69 0 l 240 972 l 826 972 l 806 853 l 356 853 l 304 561 l 754 561 l 733 442 l 283 442 l 226 119 l 676 119 l 656 0 "},"Ì":{"ha":399,"x_min":0,"x_max":0,"o":"m 69 0 l 240 972 l 376 972 l 206 0 m 136 1207 l 224 1300 l 425 1103 l 356 1028 "},"Í":{"ha":399,"x_min":0,"x_max":0,"o":"m 69 0 l 240 972 l 376 972 l 206 0 m 294 1032 l 243 1108 l 493 1290 l 560 1194 "},"Î":{"ha":399,"x_min":0,"x_max":0,"o":"m 69 0 l 240 972 l 376 972 l 206 0 m 432 1281 l 546 1094 l 464 1036 l 350 1197 l 181 1036 l 114 1094 l 300 1281 "},"Ï":{"ha":399,"x_min":0,"x_max":0,"o":"m 413 1061 l 439 1215 l 581 1215 l 554 1061 m 93 1061 l 119 1215 l 261 1215 l 235 1061 m 69 0 l 240 972 l 376 972 l 206 0 "},"Ð":{"ha":1007,"x_min":0,"x_max":0,"o":"m 486 972 b 779 899 608 972 704 947 b 949 543 886 829 949 710 b 600 35 949 293 815 108 b 361 0 533 13 458 0 l 69 0 l 147 446 l 51 446 l 71 556 l 167 556 l 240 972 m 303 556 l 468 556 l 449 446 l 283 446 l 226 119 l 372 119 b 574 154 457 119 519 131 b 807 543 721 217 807 358 b 668 808 807 668 754 758 b 481 853 618 838 557 853 l 356 853 "},"Ñ":{"ha":1042,"x_min":0,"x_max":0,"o":"m 739 0 l 333 728 l 206 0 l 69 0 l 240 972 l 349 972 l 756 244 l 883 972 l 1019 972 l 849 0 m 418 1071 l 418 1088 b 569 1236 418 1167 476 1236 b 685 1192 619 1236 656 1215 b 765 1144 714 1169 739 1144 b 822 1204 800 1144 822 1169 l 913 1208 l 913 1192 b 761 1043 913 1113 854 1043 b 646 1088 711 1043 675 1064 b 565 1135 617 1110 592 1135 b 508 1075 531 1135 508 1110 "},"Ò":{"ha":1164,"x_min":0,"x_max":0,"o":"m 244 425 b 561 103 244 253 376 103 b 967 547 808 103 967 311 b 650 869 967 719 835 869 b 244 425 403 869 244 661 m 103 419 b 656 989 103 724 331 989 b 1108 553 906 989 1108 800 b 556 -17 1108 249 881 -17 b 103 419 306 -17 103 172 m 514 1207 l 601 1300 l 803 1103 l 733 1028 "},"Ó":{"ha":1164,"x_min":0,"x_max":0,"o":"m 244 425 b 561 103 244 253 376 103 b 967 547 808 103 967 311 b 650 869 967 719 835 869 b 244 425 403 869 244 661 m 103 419 b 656 989 103 724 331 989 b 1108 553 906 989 1108 800 b 556 -17 1108 249 881 -17 b 103 419 306 -17 103 172 m 675 1032 l 624 1108 l 874 1290 l 940 1194 "},"Ô":{"ha":1164,"x_min":0,"x_max":0,"o":"m 244 425 b 561 103 244 253 376 103 b 967 547 808 103 967 311 b 650 869 967 719 835 869 b 244 425 403 869 244 661 m 103 419 b 656 989 103 724 331 989 b 1108 553 906 989 1108 800 b 556 -17 1108 249 881 -17 b 103 419 306 -17 103 172 m 810 1281 l 924 1094 l 842 1036 l 728 1197 l 558 1036 l 492 1094 l 678 1281 "},"Õ":{"ha":1164,"x_min":0,"x_max":0,"o":"m 244 425 b 561 103 244 253 376 103 b 967 547 808 103 967 311 b 650 869 967 719 835 869 b 244 425 403 869 244 661 m 103 419 b 656 989 103 724 331 989 b 1108 553 906 989 1108 800 b 556 -17 1108 249 881 -17 b 103 419 306 -17 103 172 m 492 1071 l 492 1088 b 643 1236 492 1167 550 1236 b 758 1192 693 1236 729 1215 b 839 1144 788 1169 813 1144 b 896 1204 874 1144 896 1169 l 986 1208 l 986 1192 b 835 1043 986 1113 928 1043 b 719 1088 785 1043 749 1064 b 639 1135 690 1110 665 1135 b 582 1075 604 1135 582 1110 "},"Ö":{"ha":1164,"x_min":0,"x_max":0,"o":"m 244 425 b 561 103 244 253 376 103 b 967 547 808 103 967 311 b 650 869 967 719 835 869 b 244 425 403 869 244 661 m 103 419 b 656 989 103 724 331 989 b 1108 553 906 989 1108 800 b 556 -17 1108 249 881 -17 b 103 419 306 -17 103 172 m 822 1061 l 849 1215 l 990 1215 l 964 1061 m 447 1061 l 474 1215 l 615 1215 l 589 1061 "},"Ø":{"ha":1164,"x_min":0,"x_max":0,"o":"m 103 419 b 656 989 103 724 331 989 b 901 921 746 989 831 964 l 963 993 l 1044 931 l 982 857 b 1108 553 1060 779 1108 672 b 556 -17 1108 249 881 -17 b 303 56 463 -17 375 10 l 232 -29 l 150 33 l 224 121 b 103 419 149 197 103 301 m 967 547 b 894 753 967 624 940 696 l 386 154 b 561 103 436 121 494 103 b 967 547 808 103 967 311 m 244 425 b 311 225 244 350 269 281 l 818 822 b 650 869 771 851 713 869 b 244 425 403 869 244 661 "},"Ǿ":{"ha":1164,"x_min":0,"x_max":0,"o":"m 103 419 b 656 989 103 724 331 989 b 901 921 746 989 831 964 l 963 993 l 1044 931 l 982 857 b 1108 553 1060 779 1108 672 b 556 -17 1108 249 881 -17 b 303 56 463 -17 375 10 l 232 -29 l 150 33 l 224 121 b 103 419 149 197 103 301 m 967 547 b 894 753 967 624 940 696 l 386 154 b 561 103 436 121 494 103 b 967 547 808 103 967 311 m 244 425 b 311 225 244 350 269 281 l 818 822 b 650 869 771 851 713 869 b 244 425 403 869 244 661 m 675 1032 l 624 1108 l 874 1290 l 940 1194 "},"Ù":{"ha":1003,"x_min":0,"x_max":0,"o":"m 369 972 l 272 422 b 263 321 267 389 263 354 b 479 103 263 179 353 103 b 683 224 565 103 636 144 b 753 422 715 276 739 343 l 850 972 l 986 972 l 896 457 b 801 161 875 338 846 239 b 475 -17 732 42 617 -17 b 128 300 281 -17 128 78 b 143 457 128 351 133 404 l 233 972 m 438 1207 l 525 1300 l 726 1103 l 657 1028 "},"Ú":{"ha":1003,"x_min":0,"x_max":0,"o":"m 369 972 l 272 422 b 263 321 267 389 263 354 b 479 103 263 179 353 103 b 683 224 565 103 636 144 b 753 422 715 276 739 343 l 850 972 l 986 972 l 896 457 b 801 161 875 338 846 239 b 475 -17 732 42 617 -17 b 128 300 281 -17 128 78 b 143 457 128 351 133 404 l 233 972 m 594 1032 l 543 1108 l 793 1290 l 860 1194 "},"Û":{"ha":1003,"x_min":0,"x_max":0,"o":"m 369 972 l 272 422 b 263 321 267 389 263 354 b 479 103 263 179 353 103 b 683 224 565 103 636 144 b 753 422 715 276 739 343 l 850 972 l 986 972 l 896 457 b 801 161 875 338 846 239 b 475 -17 732 42 617 -17 b 128 300 281 -17 128 78 b 143 457 128 351 133 404 l 233 972 m 743 1281 l 857 1094 l 775 1036 l 661 1197 l 492 1036 l 425 1094 l 611 1281 "},"Ü":{"ha":1003,"x_min":0,"x_max":0,"o":"m 369 972 l 272 422 b 263 321 267 389 263 354 b 479 103 263 179 353 103 b 683 224 565 103 636 144 b 753 422 715 276 739 343 l 850 972 l 986 972 l 896 457 b 801 161 875 338 846 239 b 475 -17 732 42 617 -17 b 128 300 281 -17 128 78 b 143 457 128 351 133 404 l 233 972 m 742 1061 l 768 1215 l 910 1215 l 883 1061 m 367 1061 l 393 1215 l 535 1215 l 508 1061 "},"Ý":{"ha":772,"x_min":0,"x_max":0,"o":"m 269 972 l 415 564 l 419 564 l 706 972 l 869 972 l 460 417 l 386 0 l 250 0 l 325 429 l 115 972 m 461 1032 l 410 1108 l 660 1290 l 726 1194 "},"Þ":{"ha":835,"x_min":0,"x_max":0,"o":"m 69 0 l 240 972 l 376 972 l 343 783 l 451 783 b 794 533 635 783 794 726 b 375 200 794 283 599 200 l 240 200 l 206 0 m 261 319 l 372 319 b 653 511 510 319 653 360 b 431 664 653 636 567 664 l 322 664 "},"ß":{"ha":883,"x_min":0,"x_max":0,"o":"m 183 751 b 526 1058 215 928 343 1058 b 792 817 676 1058 792 964 b 657 585 792 721 740 632 b 811 339 761 546 811 444 b 453 -15 811 138 657 -15 b 293 19 397 -15 344 -6 l 356 128 b 469 100 394 108 433 100 b 682 318 597 100 682 197 b 474 518 682 435 597 518 b 413 515 463 518 432 518 l 426 615 l 454 615 b 664 801 556 615 664 692 b 522 942 664 883 607 942 b 306 724 390 942 329 856 l 178 0 l 50 0 "},"à":{"ha":753,"x_min":0,"x_max":0,"o":"m 133 642 b 413 711 211 682 319 711 b 668 490 582 711 668 628 b 661 422 668 469 665 446 l 586 0 l 464 0 l 475 58 b 272 -17 421 7 351 -17 b 50 182 156 -17 50 47 b 382 426 50 357 233 426 b 531 408 428 426 478 419 l 538 443 b 542 482 540 457 542 469 b 389 601 542 565 467 601 b 164 540 314 601 235 576 l 133 642 m 514 314 b 376 331 469 325 421 331 b 176 196 296 331 176 299 b 304 89 176 124 240 89 b 488 163 374 89 433 124 m 286 1028 l 385 1088 l 531 836 l 449 786 "},"á":{"ha":753,"x_min":0,"x_max":0,"o":"m 133 642 b 413 711 211 682 319 711 b 668 490 582 711 668 628 b 661 422 668 469 665 446 l 586 0 l 464 0 l 475 58 b 272 -17 421 7 351 -17 b 50 182 156 -17 50 47 b 382 426 50 357 233 426 b 531 408 428 426 478 419 l 538 443 b 542 482 540 457 542 469 b 389 601 542 565 467 601 b 164 540 314 601 235 576 l 133 642 m 514 314 b 376 331 469 325 421 331 b 176 196 296 331 176 299 b 304 89 176 124 240 89 b 488 163 374 89 433 124 m 436 786 l 367 851 l 561 1067 l 644 988 "},"â":{"ha":753,"x_min":0,"x_max":0,"o":"m 133 642 b 413 711 211 682 319 711 b 668 490 582 711 668 628 b 661 422 668 469 665 446 l 586 0 l 464 0 l 475 58 b 272 -17 421 7 351 -17 b 50 182 156 -17 50 47 b 382 426 50 357 233 426 b 531 408 428 426 478 419 l 538 443 b 542 482 540 457 542 469 b 389 601 542 565 467 601 b 164 540 314 601 235 576 l 133 642 m 514 314 b 376 331 469 325 421 331 b 176 196 296 331 176 299 b 304 89 176 124 240 89 b 488 163 374 89 433 124 m 647 829 l 567 788 l 468 963 l 304 782 l 233 840 l 411 1054 l 533 1054 "},"ã":{"ha":753,"x_min":0,"x_max":0,"o":"m 133 642 b 413 711 211 682 319 711 b 668 490 582 711 668 628 b 661 422 668 469 665 446 l 586 0 l 464 0 l 475 58 b 272 -17 421 7 351 -17 b 50 182 156 -17 50 47 b 382 426 50 357 233 426 b 531 408 428 426 478 419 l 538 443 b 542 482 540 457 542 469 b 389 601 542 565 467 601 b 164 540 314 601 235 576 l 133 642 m 514 314 b 376 331 469 325 421 331 b 176 196 296 331 176 299 b 304 89 176 124 240 89 b 488 163 374 89 433 124 m 708 969 l 708 957 b 564 808 708 876 658 808 b 451 851 514 808 479 829 b 368 897 421 874 399 897 b 310 839 333 897 310 872 l 221 835 l 221 847 b 365 996 221 928 271 996 b 478 953 415 996 450 975 b 561 907 508 931 531 907 b 619 965 596 907 619 932 "},"ä":{"ha":753,"x_min":0,"x_max":0,"o":"m 133 642 b 413 711 211 682 319 711 b 668 490 582 711 668 628 b 661 422 668 469 665 446 l 586 0 l 464 0 l 475 58 b 272 -17 421 7 351 -17 b 50 182 156 -17 50 47 b 382 426 50 357 233 426 b 531 408 428 426 478 419 l 538 443 b 542 482 540 457 542 469 b 389 601 542 565 467 601 b 164 540 314 601 235 576 l 133 642 m 514 314 b 376 331 469 325 421 331 b 176 196 296 331 176 299 b 304 89 176 124 240 89 b 488 163 374 89 433 124 m 265 831 l 290 972 l 418 972 l 393 831 m 547 831 l 572 972 l 700 972 l 675 831 "},"å":{"ha":753,"x_min":0,"x_max":0,"o":"m 133 642 b 413 711 211 682 319 711 b 668 490 582 711 668 628 b 661 422 668 469 665 446 l 586 0 l 464 0 l 475 58 b 272 -17 421 7 351 -17 b 50 182 156 -17 50 47 b 382 426 50 357 233 426 b 531 408 428 426 478 419 l 538 443 b 542 482 540 457 542 469 b 389 601 542 565 467 601 b 164 540 314 601 235 576 l 133 642 m 514 314 b 376 331 469 325 421 331 b 176 196 296 331 176 299 b 304 89 176 124 240 89 b 488 163 374 89 433 124 m 354 914 b 483 1043 354 985 413 1043 b 613 914 554 1043 613 985 b 483 785 613 843 554 785 b 354 914 413 785 354 843 m 422 914 b 483 853 422 881 450 853 b 544 914 517 853 544 881 b 483 975 544 947 517 975 b 422 914 450 975 422 947 "},"ǻ":{"ha":753,"x_min":0,"x_max":0,"o":"m 421 1032 l 379 1103 l 625 1256 l 676 1168 m 354 888 b 483 1017 354 958 413 1017 b 613 888 554 1017 613 958 b 483 758 613 817 554 758 b 354 888 413 758 354 817 m 422 888 b 483 826 422 854 450 826 b 544 888 517 826 544 854 b 483 949 544 921 517 949 b 422 888 450 949 422 921 m 133 642 b 413 711 211 682 319 711 b 668 490 582 711 668 628 b 661 422 668 469 665 446 l 586 0 l 464 0 l 475 58 b 272 -17 421 7 351 -17 b 50 182 156 -17 50 47 b 382 426 50 357 233 426 b 531 408 428 426 478 419 l 538 443 b 542 482 540 457 542 469 b 389 601 542 565 467 601 b 164 540 314 601 235 576 l 133 642 m 514 314 b 376 331 469 325 421 331 b 176 196 296 331 176 299 b 304 89 176 124 240 89 b 488 163 374 89 433 124 "},"æ":{"ha":1246,"x_min":0,"x_max":0,"o":"m 133 642 b 413 711 211 682 319 711 b 642 604 528 711 604 672 b 889 711 707 668 792 711 b 1190 422 1076 711 1190 596 b 1174 315 1190 389 1183 344 l 643 315 l 643 306 b 832 92 643 189 719 92 b 1043 206 914 92 994 136 l 1135 131 b 825 -17 1050 31 946 -17 b 582 93 725 -17 638 24 b 282 -17 499 24 407 -17 b 50 182 163 -17 50 39 b 382 426 50 357 233 426 b 531 408 428 426 478 419 l 538 443 b 542 482 540 457 542 469 b 389 601 542 565 467 601 b 164 540 314 601 235 576 l 133 642 m 533 179 b 514 297 521 215 514 254 l 514 314 b 376 331 469 325 421 331 b 176 196 296 331 176 299 b 319 89 176 114 254 89 b 533 179 394 89 456 113 m 889 603 b 661 417 778 603 696 519 l 1060 417 b 1061 435 1061 422 1061 429 b 889 603 1061 526 989 603 "},"ǽ":{"ha":1246,"x_min":0,"x_max":0,"o":"m 133 642 b 413 711 211 682 319 711 b 642 604 528 711 604 672 b 889 711 707 668 792 711 b 1190 422 1076 711 1190 596 b 1174 315 1190 389 1183 344 l 643 315 l 643 306 b 832 92 643 189 719 92 b 1043 206 914 92 994 136 l 1135 131 b 825 -17 1050 31 946 -17 b 582 93 725 -17 638 24 b 282 -17 499 24 407 -17 b 50 182 163 -17 50 39 b 382 426 50 357 233 426 b 531 408 428 426 478 419 l 538 443 b 542 482 540 457 542 469 b 389 601 542 565 467 601 b 164 540 314 601 235 576 l 133 642 m 533 179 b 514 297 521 215 514 254 l 514 314 b 376 331 469 325 421 331 b 176 196 296 331 176 299 b 319 89 176 114 254 89 b 533 179 394 89 456 113 m 889 603 b 661 417 778 603 696 519 l 1060 417 b 1061 435 1061 422 1061 429 b 889 603 1061 526 989 603 m 671 786 l 601 851 l 796 1067 l 879 988 "},"ç":{"ha":668,"x_min":0,"x_max":0,"o":"m 594 51 b 385 -17 535 8 463 -17 b 336 -14 369 -17 353 -17 l 294 -90 l 296 -92 b 365 -69 319 -76 343 -69 b 467 -179 422 -69 467 -117 b 299 -340 467 -261 385 -340 b 158 -258 240 -340 186 -318 l 244 -219 b 304 -264 251 -247 272 -264 b 372 -189 342 -264 372 -229 b 321 -137 372 -160 353 -137 b 261 -171 299 -137 274 -149 l 183 -126 l 261 4 b 56 297 140 49 56 156 b 440 711 56 513 222 711 b 661 632 525 711 603 682 l 583 532 b 436 594 547 571 494 594 b 185 306 286 594 185 457 b 388 100 185 193 271 100 b 522 143 439 100 485 117 "},"è":{"ha":788,"x_min":0,"x_max":0,"o":"m 185 315 b 200 218 185 283 188 250 b 374 92 228 142 292 92 b 585 206 456 92 536 136 l 676 131 b 367 -17 592 31 488 -17 b 56 297 192 -17 56 108 b 431 711 56 510 217 711 b 732 422 618 711 732 596 b 715 315 732 389 725 344 m 431 603 b 203 417 318 603 238 519 l 601 417 b 603 435 603 422 603 429 b 431 603 603 526 531 603 m 293 1028 l 392 1088 l 538 836 l 456 786 "},"é":{"ha":788,"x_min":0,"x_max":0,"o":"m 185 315 b 200 218 185 283 188 250 b 374 92 228 142 292 92 b 585 206 456 92 536 136 l 676 131 b 367 -17 592 31 488 -17 b 56 297 192 -17 56 108 b 431 711 56 510 217 711 b 732 422 618 711 732 596 b 715 315 732 389 725 344 m 431 603 b 203 417 318 603 238 519 l 601 417 b 603 435 603 422 603 429 b 431 603 603 526 531 603 m 483 786 l 414 851 l 608 1067 l 692 988 "},"ê":{"ha":788,"x_min":0,"x_max":0,"o":"m 185 315 b 200 218 185 283 188 250 b 374 92 228 142 292 92 b 585 206 456 92 536 136 l 676 131 b 367 -17 592 31 488 -17 b 56 297 192 -17 56 108 b 431 711 56 510 217 711 b 732 422 618 711 732 596 b 715 315 732 389 725 344 m 431 603 b 203 417 318 603 238 519 l 601 417 b 603 435 603 422 603 429 b 431 603 603 526 531 603 m 686 829 l 606 788 l 507 963 l 343 782 l 272 840 l 450 1054 l 572 1054 "},"ë":{"ha":788,"x_min":0,"x_max":0,"o":"m 185 315 b 200 218 185 283 188 250 b 374 92 228 142 292 92 b 585 206 456 92 536 136 l 676 131 b 367 -17 592 31 488 -17 b 56 297 192 -17 56 108 b 431 711 56 510 217 711 b 732 422 618 711 732 596 b 715 315 732 389 725 344 m 431 603 b 203 417 318 603 238 519 l 601 417 b 603 435 603 422 603 429 b 431 603 603 526 531 603 m 278 831 l 303 972 l 431 972 l 406 831 m 560 831 l 585 972 l 713 972 l 688 831 "},"ì":{"ha":361,"x_min":0,"x_max":0,"o":"m 183 0 l 56 0 l 179 694 l 307 694 m 92 1028 l 190 1088 l 336 836 l 254 786 "},"í":{"ha":361,"x_min":0,"x_max":0,"o":"m 183 0 l 56 0 l 179 694 l 307 694 m 268 786 l 199 851 l 393 1067 l 476 988 "},"î":{"ha":361,"x_min":0,"x_max":0,"o":"m 183 0 l 56 0 l 179 694 l 307 694 m 474 829 l 393 788 l 294 963 l 131 782 l 60 840 l 238 1054 l 360 1054 "},"ï":{"ha":361,"x_min":0,"x_max":0,"o":"m 63 831 l 88 972 l 215 972 l 190 831 m 344 831 l 369 972 l 497 972 l 472 831 m 183 0 l 56 0 l 179 694 l 307 694 "},"ð":{"ha":797,"x_min":0,"x_max":0,"o":"m 608 463 b 419 533 554 506 489 533 b 181 296 294 533 181 436 b 379 100 181 197 265 100 b 614 394 533 100 614 253 b 608 463 614 418 611 440 m 522 1053 l 436 926 b 742 411 604 808 742 638 b 358 -17 742 208 622 -17 b 56 282 206 -17 56 108 b 390 649 56 456 183 649 b 567 594 454 649 513 629 b 365 822 522 683 450 758 l 282 699 l 200 747 l 288 876 b 175 939 250 899 213 919 l 222 1046 b 356 978 267 1026 311 1003 l 440 1101 "},"ñ":{"ha":842,"x_min":0,"x_max":0,"o":"m 288 588 b 529 711 351 663 428 711 b 747 481 668 711 747 624 b 736 361 747 440 743 399 l 672 0 l 544 0 l 607 354 b 621 463 613 389 621 426 b 492 594 621 553 578 594 b 267 467 404 594 326 536 l 183 0 l 56 0 l 179 694 l 307 694 m 789 969 l 789 957 b 644 808 789 876 739 808 b 532 851 594 808 560 829 b 449 897 501 874 479 897 b 390 839 414 897 390 872 l 301 835 l 301 847 b 446 996 301 928 351 996 b 558 953 496 996 531 975 b 642 907 589 931 611 907 b 700 965 676 907 700 932 "},"ò":{"ha":814,"x_min":0,"x_max":0,"o":"m 56 297 b 435 711 56 514 218 711 b 758 397 617 711 758 582 b 379 -17 758 181 596 -17 b 56 297 197 -17 56 113 m 629 389 b 431 594 629 501 547 594 b 185 306 281 594 185 458 b 383 100 185 193 267 100 b 629 389 533 100 629 236 m 306 1028 l 404 1088 l 550 836 l 468 786 "},"ó":{"ha":814,"x_min":0,"x_max":0,"o":"m 56 297 b 435 711 56 514 218 711 b 758 397 617 711 758 582 b 379 -17 758 181 596 -17 b 56 297 197 -17 56 113 m 629 389 b 431 594 629 501 547 594 b 185 306 281 594 185 458 b 383 100 185 193 267 100 b 629 389 533 100 629 236 m 496 786 l 426 851 l 621 1067 l 704 988 "},"ô":{"ha":814,"x_min":0,"x_max":0,"o":"m 56 297 b 435 711 56 514 218 711 b 758 397 617 711 758 582 b 379 -17 758 181 596 -17 b 56 297 197 -17 56 113 m 629 389 b 431 594 629 501 547 594 b 185 306 281 594 185 458 b 383 100 185 193 267 100 b 629 389 533 100 629 236 m 694 829 l 614 788 l 515 963 l 351 782 l 281 840 l 458 1054 l 581 1054 "},"õ":{"ha":814,"x_min":0,"x_max":0,"o":"m 56 297 b 435 711 56 514 218 711 b 758 397 617 711 758 582 b 379 -17 758 181 596 -17 b 56 297 197 -17 56 113 m 629 389 b 431 594 629 501 547 594 b 185 306 281 594 185 458 b 383 100 185 193 267 100 b 629 389 533 100 629 236 m 756 969 l 756 957 b 611 808 756 876 706 808 b 499 851 561 808 526 829 b 415 897 468 874 446 897 b 357 839 381 897 357 872 l 268 835 l 268 847 b 413 996 268 928 318 996 b 525 953 463 996 497 975 b 608 907 556 931 578 907 b 667 965 643 907 667 932 "},"ö":{"ha":814,"x_min":0,"x_max":0,"o":"m 56 297 b 435 711 56 514 218 711 b 758 397 617 711 758 582 b 379 -17 758 181 596 -17 b 56 297 197 -17 56 113 m 629 389 b 431 594 629 501 547 594 b 185 306 281 594 185 458 b 383 100 185 193 267 100 b 629 389 533 100 629 236 m 288 831 l 313 972 l 440 972 l 415 831 m 569 831 l 594 972 l 722 972 l 697 831 "},"ø":{"ha":814,"x_min":0,"x_max":0,"o":"m 56 297 b 435 711 56 514 218 711 b 603 669 496 711 554 696 l 644 724 l 715 671 l 672 615 b 758 397 726 560 758 485 b 379 -17 758 181 596 -17 b 211 25 317 -17 260 -1 l 168 -29 l 97 24 l 140 79 b 56 297 88 133 56 210 m 629 389 b 592 513 629 435 617 478 l 288 124 b 383 100 315 108 347 100 b 629 389 533 100 629 236 m 185 306 b 222 183 185 260 199 217 l 525 571 b 431 594 497 586 465 594 b 185 306 281 594 185 458 "},"ǿ":{"ha":814,"x_min":0,"x_max":0,"o":"m 56 297 b 435 711 56 514 218 711 b 603 669 496 711 554 696 l 644 724 l 715 671 l 672 615 b 758 397 726 560 758 485 b 379 -17 758 181 596 -17 b 211 25 317 -17 260 -1 l 168 -29 l 97 24 l 140 79 b 56 297 88 133 56 210 m 629 389 b 592 513 629 435 617 478 l 288 124 b 383 100 315 108 347 100 b 629 389 533 100 629 236 m 185 306 b 222 183 185 260 199 217 l 525 571 b 431 594 497 586 465 594 b 185 306 281 594 185 458 m 496 786 l 426 851 l 621 1067 l 704 988 "},"ù":{"ha":842,"x_min":0,"x_max":0,"o":"m 554 107 b 313 -17 490 32 414 -17 b 94 214 174 -17 94 71 b 106 333 94 254 99 296 l 169 694 l 297 694 l 235 340 b 221 232 229 306 221 268 b 350 100 221 142 264 100 b 575 228 438 100 515 158 l 658 694 l 786 694 l 663 0 l 535 0 m 317 1028 l 415 1088 l 561 836 l 479 786 "},"ú":{"ha":842,"x_min":0,"x_max":0,"o":"m 554 107 b 313 -17 490 32 414 -17 b 94 214 174 -17 94 71 b 106 333 94 254 99 296 l 169 694 l 297 694 l 235 340 b 221 232 229 306 221 268 b 350 100 221 142 264 100 b 575 228 438 100 515 158 l 658 694 l 786 694 l 663 0 l 535 0 m 507 786 l 438 851 l 632 1067 l 715 988 "},"û":{"ha":842,"x_min":0,"x_max":0,"o":"m 554 107 b 313 -17 490 32 414 -17 b 94 214 174 -17 94 71 b 106 333 94 254 99 296 l 169 694 l 297 694 l 235 340 b 221 232 229 306 221 268 b 350 100 221 142 264 100 b 575 228 438 100 515 158 l 658 694 l 786 694 l 663 0 l 535 0 m 715 829 l 635 788 l 536 963 l 372 782 l 301 840 l 479 1054 l 601 1054 "},"ü":{"ha":842,"x_min":0,"x_max":0,"o":"m 554 107 b 313 -17 490 32 414 -17 b 94 214 174 -17 94 71 b 106 333 94 254 99 296 l 169 694 l 297 694 l 235 340 b 221 232 229 306 221 268 b 350 100 221 142 264 100 b 575 228 438 100 515 158 l 658 694 l 786 694 l 663 0 l 535 0 m 296 831 l 321 972 l 449 972 l 424 831 m 578 831 l 603 972 l 731 972 l 706 831 "},"ý":{"ha":654,"x_min":0,"x_max":0,"o":"m 564 694 l 708 694 l 143 -317 l 38 -262 l 192 17 l 56 694 l 190 694 l 281 160 l 283 160 m 386 786 l 317 851 l 511 1067 l 594 988 "},"þ":{"ha":868,"x_min":0,"x_max":0,"o":"m 292 615 b 513 711 349 678 436 711 b 813 400 669 711 813 588 b 422 -17 813 188 657 -17 b 199 92 321 -17 243 31 l 121 -347 l -7 -347 l 239 1042 l 367 1042 m 478 594 b 269 489 414 594 324 558 l 224 231 b 425 100 267 151 335 100 b 683 378 582 100 683 240 b 478 594 683 496 618 594 "},"ÿ":{"ha":654,"x_min":0,"x_max":0,"o":"m 564 694 l 708 694 l 143 -317 l 38 -262 l 192 17 l 56 694 l 190 694 l 281 160 l 283 160 m 201 831 l 226 972 l 354 972 l 329 831 m 483 831 l 508 972 l 636 972 l 611 831 "},"Ā":{"ha":875,"x_min":0,"x_max":0,"o":"m 506 972 l 628 972 l 826 0 l 679 0 l 639 207 l 225 207 l 113 0 l -42 0 m 289 326 l 617 326 l 531 769 l 529 769 m 356 1075 l 372 1174 l 831 1174 l 814 1075 "},"ā":{"ha":753,"x_min":0,"x_max":0,"o":"m 133 642 b 413 711 211 682 319 711 b 668 490 582 711 668 628 b 661 422 668 469 665 446 l 586 0 l 464 0 l 475 58 b 272 -17 421 7 351 -17 b 50 182 156 -17 50 47 b 382 426 50 357 233 426 b 531 408 428 426 478 419 l 538 443 b 542 482 540 457 542 469 b 389 601 542 565 467 601 b 164 540 314 601 235 576 l 133 642 m 514 314 b 376 331 469 325 421 331 b 176 196 296 331 176 299 b 304 89 176 124 240 89 b 488 163 374 89 433 124 m 268 844 l 285 942 l 694 942 l 678 844 "},"Ă":{"ha":875,"x_min":0,"x_max":0,"o":"m 506 972 l 628 972 l 826 0 l 679 0 l 639 207 l 225 207 l 113 0 l -42 0 m 289 326 l 617 326 l 531 769 l 529 769 m 808 1242 b 597 1050 808 1140 719 1050 b 410 1217 489 1050 410 1119 b 411 1242 410 1224 410 1232 l 503 1242 b 501 1224 501 1235 501 1229 b 601 1139 501 1172 539 1139 b 719 1242 664 1139 719 1181 "},"ă":{"ha":753,"x_min":0,"x_max":0,"o":"m 133 642 b 413 711 211 682 319 711 b 668 490 582 711 668 628 b 661 422 668 469 665 446 l 586 0 l 464 0 l 475 58 b 272 -17 421 7 351 -17 b 50 182 156 -17 50 47 b 382 426 50 357 233 426 b 531 408 428 426 478 419 l 538 443 b 542 482 540 457 542 469 b 389 601 542 565 467 601 b 164 540 314 601 235 576 l 133 642 m 514 314 b 376 331 469 325 421 331 b 176 196 296 331 176 299 b 304 89 176 124 240 89 b 488 163 374 89 433 124 m 699 1007 b 488 789 699 889 610 789 b 300 976 379 789 300 871 b 301 1007 300 986 300 994 l 393 1007 b 392 978 392 996 392 988 b 492 878 392 924 429 878 b 610 1007 554 878 610 932 "},"Ą":{"ha":875,"x_min":0,"x_max":0,"o":"m 506 972 l 628 972 l 826 0 b 636 -176 733 -14 636 -89 b 678 -214 636 -199 650 -214 b 747 -192 703 -214 726 -204 l 785 -268 b 660 -308 750 -296 701 -308 b 521 -189 586 -308 521 -267 b 679 1 521 -97 593 -35 l 639 207 l 225 207 l 113 0 l -42 0 m 289 326 l 617 326 l 531 769 l 529 769 "},"ą":{"ha":753,"x_min":0,"x_max":0,"o":"m 586 0 b 415 -176 511 -18 415 -85 b 457 -214 415 -200 429 -214 b 526 -192 482 -214 506 -204 l 564 -268 b 439 -308 529 -296 481 -308 b 300 -189 365 -308 300 -267 b 464 3 300 -94 374 -33 l 475 58 b 272 -17 421 7 351 -17 b 50 182 156 -17 50 47 b 382 426 50 357 233 426 b 531 408 428 426 478 419 l 538 443 b 542 482 540 457 542 469 b 389 601 542 565 467 601 b 164 540 314 601 235 576 l 133 642 b 413 711 211 682 319 711 b 668 490 582 711 668 628 b 661 422 668 469 665 446 l 586 0 m 514 314 b 376 331 469 325 421 331 b 176 196 296 331 176 299 b 304 89 176 124 240 89 b 488 163 374 89 433 124 l 514 314 "},"Ć":{"ha":936,"x_min":0,"x_max":0,"o":"m 853 69 b 556 -17 769 15 668 -17 b 103 419 306 -17 103 172 b 656 989 103 724 331 989 b 943 889 765 989 865 951 l 863 788 b 650 869 808 838 735 869 b 244 425 403 869 244 661 b 561 103 244 253 376 103 b 783 171 647 103 722 128 m 674 1032 l 622 1108 l 872 1290 l 939 1194 "},"ć":{"ha":668,"x_min":0,"x_max":0,"o":"m 594 51 b 385 -17 535 8 463 -17 b 56 297 203 -17 56 111 b 440 711 56 513 222 711 b 661 632 525 711 603 682 l 583 532 b 436 594 547 571 494 594 b 185 306 286 594 185 457 b 388 100 185 193 271 100 b 522 143 439 100 485 117 m 496 786 l 426 851 l 621 1067 l 704 988 "},"Ĉ":{"ha":936,"x_min":0,"x_max":0,"o":"m 853 69 b 556 -17 769 15 668 -17 b 103 419 306 -17 103 172 b 656 989 103 724 331 989 b 943 889 765 989 865 951 l 863 788 b 650 869 808 838 735 869 b 244 425 403 869 244 661 b 561 103 244 253 376 103 b 783 171 647 103 722 128 m 810 1281 l 924 1094 l 842 1036 l 728 1197 l 558 1036 l 492 1094 l 678 1281 "},"ĉ":{"ha":668,"x_min":0,"x_max":0,"o":"m 594 51 b 385 -17 535 8 463 -17 b 56 297 203 -17 56 111 b 440 711 56 513 222 711 b 661 632 525 711 603 682 l 583 532 b 436 594 547 571 494 594 b 185 306 286 594 185 457 b 388 100 185 193 271 100 b 522 143 439 100 485 117 m 682 829 l 601 788 l 503 963 l 339 782 l 268 840 l 446 1054 l 568 1054 "},"Ċ":{"ha":936,"x_min":0,"x_max":0,"o":"m 853 69 b 556 -17 769 15 668 -17 b 103 419 306 -17 103 172 b 656 989 103 724 331 989 b 943 889 765 989 865 951 l 863 788 b 650 869 808 838 735 869 b 244 425 403 869 244 661 b 561 103 244 253 376 103 b 783 171 647 103 722 128 m 611 1061 l 638 1215 l 779 1215 l 753 1061 "},"ċ":{"ha":668,"x_min":0,"x_max":0,"o":"m 594 51 b 385 -17 535 8 463 -17 b 56 297 203 -17 56 111 b 440 711 56 513 222 711 b 661 632 525 711 603 682 l 583 532 b 436 594 547 571 494 594 b 185 306 286 594 185 457 b 388 100 185 193 271 100 b 522 143 439 100 485 117 m 406 831 l 431 972 l 558 972 l 533 831 "},"Č":{"ha":936,"x_min":0,"x_max":0,"o":"m 853 69 b 556 -17 769 15 668 -17 b 103 419 306 -17 103 172 b 656 989 103 724 331 989 b 943 889 765 989 865 951 l 863 788 b 650 869 808 838 735 869 b 244 425 403 869 244 661 b 561 103 244 253 376 103 b 783 171 647 103 722 128 m 626 1044 l 513 1231 l 594 1289 l 708 1128 l 878 1289 l 944 1231 l 758 1044 "},"č":{"ha":668,"x_min":0,"x_max":0,"o":"m 594 51 b 385 -17 535 8 463 -17 b 56 297 203 -17 56 111 b 440 711 56 513 222 711 b 661 632 525 711 603 682 l 583 532 b 436 594 547 571 494 594 b 185 306 286 594 185 457 b 388 100 185 193 271 100 b 522 143 439 100 485 117 m 285 1015 l 365 1057 l 464 882 l 628 1063 l 699 1004 l 521 790 l 399 790 "},"Ď":{"ha":1007,"x_min":0,"x_max":0,"o":"m 486 972 b 779 899 608 972 704 947 b 949 543 886 829 949 710 b 600 35 949 293 815 108 b 361 0 533 13 458 0 l 69 0 l 240 972 m 226 119 l 372 119 b 574 154 457 119 519 131 b 807 543 721 217 807 358 b 668 808 807 668 754 758 b 481 853 618 838 557 853 l 356 853 m 504 1044 l 390 1231 l 472 1289 l 586 1128 l 756 1289 l 822 1231 l 636 1044 "},"ď":{"ha":914,"x_min":0,"x_max":0,"o":"m 563 0 l 576 79 b 356 -17 519 17 432 -17 b 56 294 199 -17 56 107 b 446 711 56 507 211 711 b 669 603 547 711 625 664 l 747 1042 l 875 1042 l 690 0 m 390 100 b 599 206 454 100 544 136 l 644 464 b 443 594 601 543 533 594 b 185 317 286 594 185 454 b 390 100 185 199 250 100 m 867 764 l 971 1042 l 1094 1042 l 972 764 "},"Đ":{"ha":1007,"x_min":0,"x_max":0,"o":"m 486 972 b 779 899 608 972 704 947 b 949 543 886 829 949 710 b 600 35 949 293 815 108 b 361 0 533 13 458 0 l 69 0 l 147 446 l 51 446 l 71 556 l 167 556 l 240 972 m 303 556 l 468 556 l 449 446 l 283 446 l 226 119 l 372 119 b 574 154 457 119 519 131 b 807 543 721 217 807 358 b 668 808 807 668 754 758 b 481 853 618 838 557 853 l 356 853 "},"đ":{"ha":868,"x_min":0,"x_max":0,"o":"m 563 0 l 576 79 b 356 -17 519 17 432 -17 b 56 294 199 -17 56 107 b 446 711 56 507 211 711 b 669 603 547 711 625 664 l 707 817 l 481 817 l 499 917 l 725 917 l 747 1042 l 875 1042 l 853 917 l 950 917 l 932 817 l 835 817 l 690 0 m 390 100 b 599 206 454 100 544 136 l 644 464 b 443 594 601 543 533 594 b 185 317 286 594 185 454 b 390 100 185 199 250 100 "},"Ē":{"ha":807,"x_min":0,"x_max":0,"o":"m 69 0 l 240 972 l 826 972 l 806 853 l 356 853 l 304 561 l 754 561 l 733 442 l 283 442 l 226 119 l 676 119 l 656 0 m 333 1075 l 350 1174 l 808 1174 l 792 1075 "},"ē":{"ha":788,"x_min":0,"x_max":0,"o":"m 185 315 b 200 218 185 283 188 250 b 374 92 228 142 292 92 b 585 206 456 92 536 136 l 676 131 b 367 -17 592 31 488 -17 b 56 297 192 -17 56 108 b 431 711 56 510 217 711 b 732 422 618 711 732 596 b 715 315 732 389 725 344 m 431 603 b 203 417 318 603 238 519 l 601 417 b 603 435 603 422 603 429 b 431 603 603 526 531 603 m 281 844 l 297 942 l 707 942 l 690 844 "},"Ĕ":{"ha":807,"x_min":0,"x_max":0,"o":"m 69 0 l 240 972 l 826 972 l 806 853 l 356 853 l 304 561 l 754 561 l 733 442 l 283 442 l 226 119 l 676 119 l 656 0 m 804 1242 b 593 1050 804 1140 715 1050 b 406 1217 485 1050 406 1119 b 407 1242 406 1224 406 1232 l 499 1242 b 497 1224 497 1235 497 1229 b 597 1139 497 1172 535 1139 b 715 1242 660 1139 715 1181 "},"ĕ":{"ha":788,"x_min":0,"x_max":0,"o":"m 185 315 b 200 218 185 283 188 250 b 374 92 228 142 292 92 b 585 206 456 92 536 136 l 676 131 b 367 -17 592 31 488 -17 b 56 297 192 -17 56 108 b 431 711 56 510 217 711 b 732 422 618 711 732 596 b 715 315 732 389 725 344 m 431 603 b 203 417 318 603 238 519 l 601 417 b 603 435 603 422 603 429 b 431 603 603 526 531 603 m 707 1007 b 496 789 707 889 618 789 b 308 976 388 789 308 871 b 310 1007 308 986 308 994 l 401 1007 b 400 978 400 996 400 988 b 500 878 400 924 438 878 b 618 1007 563 878 618 932 "},"Ė":{"ha":807,"x_min":0,"x_max":0,"o":"m 69 0 l 240 972 l 826 972 l 806 853 l 356 853 l 304 561 l 754 561 l 733 442 l 283 442 l 226 119 l 676 119 l 656 0 m 492 1061 l 518 1215 l 660 1215 l 633 1061 "},"ė":{"ha":788,"x_min":0,"x_max":0,"o":"m 185 315 b 200 218 185 283 188 250 b 374 92 228 142 292 92 b 585 206 456 92 536 136 l 676 131 b 367 -17 592 31 488 -17 b 56 297 192 -17 56 108 b 431 711 56 510 217 711 b 732 422 618 711 732 596 b 715 315 732 389 725 344 m 431 603 b 203 417 318 603 238 519 l 601 417 b 603 435 603 422 603 429 b 431 603 603 526 531 603 m 418 831 l 443 972 l 571 972 l 546 831 "},"Ę":{"ha":807,"x_min":0,"x_max":0,"o":"m 656 0 b 461 -176 563 -14 461 -89 b 503 -214 461 -199 475 -214 b 572 -192 528 -214 551 -204 l 610 -268 b 485 -308 575 -296 526 -308 b 346 -189 411 -308 346 -267 b 489 0 346 -103 410 -42 l 69 0 l 240 972 l 826 972 l 806 853 l 356 853 l 304 561 l 754 561 l 733 442 l 283 442 l 226 119 l 676 119 l 656 0 "},"ę":{"ha":788,"x_min":0,"x_max":0,"o":"m 431 603 b 203 417 318 603 238 519 l 601 417 b 603 435 603 422 603 429 b 431 603 603 526 531 603 m 306 -11 b 56 297 161 14 56 131 b 431 711 56 510 217 711 b 732 422 618 711 732 596 b 715 315 732 389 725 344 l 185 315 l 185 306 b 374 92 185 189 261 92 b 585 206 456 92 536 136 l 676 131 b 469 -4 617 60 547 15 b 297 -176 383 -25 297 -96 b 339 -214 297 -199 311 -214 b 408 -192 364 -214 388 -204 l 446 -268 b 321 -308 411 -296 363 -308 b 182 -189 247 -308 182 -267 b 306 -11 182 -110 236 -53 "},"Ě":{"ha":807,"x_min":0,"x_max":0,"o":"m 69 0 l 240 972 l 826 972 l 806 853 l 356 853 l 304 561 l 754 561 l 733 442 l 283 442 l 226 119 l 676 119 l 656 0 m 483 1044 l 369 1231 l 451 1289 l 565 1128 l 735 1289 l 801 1231 l 615 1044 "},"ě":{"ha":788,"x_min":0,"x_max":0,"o":"m 185 315 b 200 218 185 283 188 250 b 374 92 228 142 292 92 b 585 206 456 92 536 136 l 676 131 b 367 -17 592 31 488 -17 b 56 297 192 -17 56 108 b 431 711 56 510 217 711 b 732 422 618 711 732 596 b 715 315 732 389 725 344 m 431 603 b 203 417 318 603 238 519 l 601 417 b 603 435 603 422 603 429 b 431 603 603 526 531 603 m 299 1015 l 379 1057 l 478 882 l 642 1063 l 713 1004 l 535 790 l 413 790 "},"Ĝ":{"ha":1082,"x_min":0,"x_max":0,"o":"m 842 419 l 597 419 l 618 539 l 999 539 l 928 133 b 556 -17 833 31 701 -17 b 103 419 306 -17 103 172 b 656 989 103 724 331 989 b 1019 815 800 989 933 925 l 910 733 b 650 869 851 817 760 869 b 244 425 403 869 244 661 b 561 103 244 253 376 103 b 800 182 656 103 726 129 m 814 1281 l 928 1094 l 846 1036 l 732 1197 l 563 1036 l 496 1094 l 682 1281 "},"ĝ":{"ha":861,"x_min":0,"x_max":0,"o":"m 646 465 b 443 594 603 543 533 594 b 185 325 286 594 185 463 b 390 117 185 207 250 117 b 603 222 454 117 549 154 m 693 14 b 526 -268 668 -126 617 -218 b 333 -311 475 -296 411 -311 b -6 -197 208 -311 96 -267 l 63 -92 b 354 -194 147 -156 243 -194 b 471 -168 403 -194 440 -186 b 563 -8 518 -140 549 -87 l 581 97 b 356 0 524 35 435 0 b 56 303 199 0 56 115 b 446 711 56 515 211 711 b 671 603 547 711 628 664 l 686 694 l 814 694 m 697 829 l 617 788 l 518 963 l 354 782 l 283 840 l 461 1054 l 583 1054 "},"Ğ":{"ha":1082,"x_min":0,"x_max":0,"o":"m 842 419 l 597 419 l 618 539 l 999 539 l 928 133 b 556 -17 833 31 701 -17 b 103 419 306 -17 103 172 b 656 989 103 724 331 989 b 1019 815 800 989 933 925 l 910 733 b 650 869 851 817 760 869 b 244 425 403 869 244 661 b 561 103 244 253 376 103 b 800 182 656 103 726 129 m 917 1242 b 706 1050 917 1140 828 1050 b 518 1217 597 1050 518 1119 b 519 1242 518 1224 518 1232 l 611 1242 b 610 1224 610 1235 610 1229 b 710 1139 610 1172 647 1139 b 828 1242 772 1139 828 1181 "},"ğ":{"ha":861,"x_min":0,"x_max":0,"o":"m 646 465 b 443 594 603 543 533 594 b 185 325 286 594 185 463 b 390 117 185 207 250 117 b 603 222 454 117 549 154 m 693 14 b 526 -268 668 -126 617 -218 b 333 -311 475 -296 411 -311 b -6 -197 208 -311 96 -267 l 63 -92 b 354 -194 147 -156 243 -194 b 471 -168 403 -194 440 -186 b 563 -8 518 -140 549 -87 l 581 97 b 356 0 524 35 435 0 b 56 303 199 0 56 115 b 446 711 56 515 211 711 b 671 603 547 711 628 664 l 686 694 l 814 694 m 722 1007 b 511 789 722 889 633 789 b 324 976 403 789 324 871 b 325 1007 324 986 324 994 l 417 1007 b 415 978 415 996 415 988 b 515 878 415 924 453 878 b 633 1007 578 878 633 932 "},"Ġ":{"ha":1082,"x_min":0,"x_max":0,"o":"m 842 419 l 597 419 l 618 539 l 999 539 l 928 133 b 556 -17 833 31 701 -17 b 103 419 306 -17 103 172 b 656 989 103 724 331 989 b 1019 815 800 989 933 925 l 910 733 b 650 869 851 817 760 869 b 244 425 403 869 244 661 b 561 103 244 253 376 103 b 800 182 656 103 726 129 m 611 1061 l 638 1215 l 779 1215 l 753 1061 "},"ġ":{"ha":861,"x_min":0,"x_max":0,"o":"m 646 465 b 443 594 603 543 533 594 b 185 325 286 594 185 463 b 390 117 185 207 250 117 b 603 222 454 117 549 154 m 693 14 b 526 -268 668 -126 617 -218 b 333 -311 475 -296 411 -311 b -6 -197 208 -311 96 -267 l 63 -92 b 354 -194 147 -156 243 -194 b 471 -168 403 -194 440 -186 b 563 -8 518 -140 549 -87 l 581 97 b 356 0 524 35 435 0 b 56 303 199 0 56 115 b 446 711 56 515 211 711 b 671 603 547 711 628 664 l 686 694 l 814 694 m 426 831 l 451 972 l 579 972 l 554 831 "},"Ģ":{"ha":1082,"x_min":0,"x_max":0,"o":"m 842 419 l 597 419 l 618 539 l 999 539 l 928 133 b 556 -17 833 31 701 -17 b 103 419 306 -17 103 172 b 656 989 103 724 331 989 b 1019 815 800 989 933 925 l 910 733 b 650 869 851 817 760 869 b 244 425 403 869 244 661 b 561 103 244 253 376 103 b 800 182 656 103 726 129 m 332 -321 l 425 -78 l 543 -78 l 436 -321 "},"ģ":{"ha":861,"x_min":0,"x_max":0,"o":"m 650 1036 l 556 788 l 432 788 l 540 1036 m 646 465 b 443 594 603 543 533 594 b 185 325 286 594 185 463 b 390 117 185 207 250 117 b 603 222 454 117 549 154 m 693 14 b 526 -268 668 -126 617 -218 b 333 -311 475 -296 411 -311 b -6 -197 208 -311 96 -267 l 63 -92 b 354 -194 147 -156 243 -194 b 471 -168 403 -194 440 -186 b 563 -8 518 -140 549 -87 l 581 97 b 356 0 524 35 435 0 b 56 303 199 0 56 115 b 446 711 56 515 211 711 b 671 603 547 711 628 664 l 686 694 l 814 694 "},"Ĥ":{"ha":1044,"x_min":0,"x_max":0,"o":"m 715 0 l 793 442 l 283 442 l 206 0 l 69 0 l 240 972 l 376 972 l 304 561 l 814 561 l 886 972 l 1022 972 l 851 0 m 754 1281 l 868 1094 l 786 1036 l 672 1197 l 503 1036 l 436 1094 l 622 1281 "},"ĥ":{"ha":842,"x_min":0,"x_max":0,"o":"m 56 0 l 240 1042 l 368 1042 l 288 586 b 529 711 351 663 428 711 b 747 481 668 711 747 624 b 736 361 747 440 743 399 l 672 0 l 544 0 l 607 354 b 621 463 613 389 621 426 b 492 594 621 553 578 594 b 265 464 403 594 322 533 l 183 0 m 414 1281 l 528 1094 l 446 1036 l 332 1197 l 163 1036 l 96 1094 l 282 1281 "},"Ħ":{"ha":1044,"x_min":0,"x_max":0,"o":"m 715 0 l 793 442 l 283 442 l 206 0 l 69 0 l 196 717 l 71 717 l 89 821 l 214 821 l 240 972 l 376 972 l 350 821 l 860 821 l 886 972 l 1022 972 l 996 821 l 1121 821 l 1103 717 l 978 717 l 851 0 m 814 561 l 842 717 l 332 717 l 304 561 "},"ħ":{"ha":842,"x_min":0,"x_max":0,"o":"m 56 0 l 200 817 l 103 817 l 121 917 l 218 917 l 240 1042 l 368 1042 l 346 917 l 572 917 l 554 817 l 328 817 l 288 586 b 529 711 351 663 428 711 b 747 481 668 711 747 624 b 736 361 747 440 743 399 l 672 0 l 544 0 l 607 354 b 621 463 613 389 621 426 b 492 594 621 553 578 594 b 265 464 403 594 322 533 l 183 0 "},"Ĩ":{"ha":399,"x_min":0,"x_max":0,"o":"m 69 0 l 240 972 l 376 972 l 206 0 m 90 1071 l 90 1088 b 242 1236 90 1167 149 1236 b 357 1192 292 1236 328 1215 b 438 1144 386 1169 411 1144 b 494 1204 472 1144 494 1169 l 585 1208 l 585 1192 b 433 1043 585 1113 526 1043 b 318 1088 383 1043 347 1064 b 238 1135 289 1110 264 1135 b 181 1075 203 1135 181 1110 "},"ĩ":{"ha":361,"x_min":0,"x_max":0,"o":"m 183 0 l 56 0 l 179 694 l 307 694 m 522 969 l 522 957 b 378 808 522 876 472 808 b 265 851 328 808 293 829 b 182 897 235 874 213 897 b 124 839 147 897 124 872 l 35 835 l 35 847 b 179 996 35 928 85 996 b 292 953 229 996 264 975 b 375 907 322 931 344 907 b 433 965 410 907 433 932 "},"Ī":{"ha":399,"x_min":0,"x_max":0,"o":"m 69 0 l 240 972 l 376 972 l 206 0 m 97 1075 l 114 1174 l 572 1174 l 556 1075 "},"ī":{"ha":361,"x_min":0,"x_max":0,"o":"m 183 0 l 56 0 l 179 694 l 307 694 m 65 844 l 82 942 l 492 942 l 475 844 "},"Ĭ":{"ha":399,"x_min":0,"x_max":0,"o":"m 69 0 l 240 972 l 376 972 l 206 0 m 550 1242 b 339 1050 550 1140 461 1050 b 151 1217 231 1050 151 1119 b 153 1242 151 1224 151 1232 l 244 1242 b 243 1224 243 1235 243 1229 b 343 1139 243 1172 281 1139 b 461 1242 406 1139 461 1181 "},"ĭ":{"ha":361,"x_min":0,"x_max":0,"o":"m 183 0 l 56 0 l 179 694 l 307 694 m 486 1007 b 275 789 486 889 397 789 b 88 976 167 789 88 871 b 89 1007 88 986 88 994 l 181 1007 b 179 978 179 996 179 988 b 279 878 179 924 217 878 b 397 1007 342 878 397 932 "},"Į":{"ha":399,"x_min":0,"x_max":0,"o":"m 206 0 b 39 -176 115 -21 39 -89 b 81 -214 39 -199 53 -214 b 150 -192 106 -214 129 -204 l 188 -268 b 63 -308 153 -296 104 -308 b -76 -189 -11 -308 -76 -267 b 69 1 -76 -101 -10 -40 l 240 972 l 376 972 l 206 0 "},"į":{"ha":361,"x_min":0,"x_max":0,"o":"m 183 0 b 22 -171 107 -18 22 -94 b 72 -214 22 -200 40 -214 b 135 -192 93 -214 115 -203 l 172 -268 b 47 -308 138 -296 89 -308 b -93 -194 -19 -308 -93 -268 b 56 0 -93 -103 -29 -36 l 179 694 l 307 694 m 203 831 l 228 972 l 356 972 l 331 831 "},"İ":{"ha":399,"x_min":0,"x_max":0,"o":"m 253 1061 l 279 1215 l 421 1215 l 394 1061 m 69 0 l 240 972 l 376 972 l 206 0 "},"ı":{"ha":361,"x_min":0,"x_max":0,"o":"m 183 0 l 56 0 l 179 694 l 307 694 "},"Ĳ":{"ha":908,"x_min":0,"x_max":0,"o":"m 69 0 l 240 972 l 376 972 l 206 0 m 415 131 b 521 103 449 115 482 103 b 596 142 557 103 581 117 b 632 263 615 172 624 215 l 757 972 l 893 972 l 765 246 b 707 74 754 181 739 121 b 518 -17 669 18 608 -17 b 364 22 465 -17 410 0 "},"ĳ":{"ha":733,"x_min":0,"x_max":0,"o":"m 203 831 l 228 972 l 356 972 l 331 831 m 183 0 l 56 0 l 179 694 l 307 694 m 701 831 l 574 831 l 599 972 l 726 972 m 547 -43 b 325 -308 521 -194 486 -308 b 168 -262 265 -308 228 -293 l 222 -158 b 306 -192 251 -182 283 -192 b 389 -142 346 -192 372 -171 b 421 -33 406 -112 414 -74 l 550 694 l 678 694 "},"Ĵ":{"ha":510,"x_min":0,"x_max":0,"o":"m 17 131 b 122 103 50 115 83 103 b 197 142 158 103 182 117 b 233 263 217 172 225 215 l 358 972 l 494 972 l 367 246 b 308 74 356 181 340 121 b 119 -17 271 18 210 -17 b -35 22 67 -17 11 0 m 550 1281 l 664 1094 l 582 1036 l 468 1197 l 299 1036 l 232 1094 l 418 1281 "},"ĵ":{"ha":372,"x_min":0,"x_max":0,"o":"m 186 -43 b -36 -308 160 -194 125 -308 b -193 -262 -96 -308 -133 -293 l -139 -158 b -56 -192 -110 -182 -78 -192 b 28 -142 -15 -192 11 -171 b 60 -33 44 -112 53 -74 l 189 694 l 317 694 m 483 829 l 403 788 l 304 963 l 140 782 l 69 840 l 247 1054 l 369 1054 "},"Ķ":{"ha":860,"x_min":0,"x_max":0,"o":"m 292 493 l 772 972 l 947 972 l 553 585 l 790 0 l 644 0 l 451 485 l 257 293 l 206 0 l 69 0 l 240 972 l 376 972 m 235 -321 l 328 -78 l 446 -78 l 339 -321 "},"ķ":{"ha":713,"x_min":0,"x_max":0,"o":"m 368 1042 l 246 354 l 247 353 l 582 694 l 750 694 l 454 406 l 644 0 l 501 0 l 360 313 l 214 171 l 183 0 l 56 0 l 240 1042 m 157 -321 l 250 -78 l 368 -78 l 261 -321 "},"ĸ":{"ha":713,"x_min":0,"x_max":0,"o":"m 307 694 l 246 354 l 247 353 l 582 694 l 750 694 l 454 406 l 644 0 l 501 0 l 360 313 l 214 171 l 183 0 l 56 0 l 179 694 "},"Ĺ":{"ha":718,"x_min":0,"x_max":0,"o":"m 69 0 l 240 972 l 376 972 l 226 119 l 649 119 l 628 0 m 294 1032 l 243 1108 l 493 1290 l 560 1194 "},"ĺ":{"ha":361,"x_min":0,"x_max":0,"o":"m 56 0 l 240 1042 l 368 1042 l 183 0 m 286 1093 l 235 1169 l 485 1351 l 551 1256 "},"Ļ":{"ha":718,"x_min":0,"x_max":0,"o":"m 69 0 l 240 972 l 376 972 l 226 119 l 649 119 l 628 0 m 201 -321 l 294 -78 l 413 -78 l 306 -321 "},"ļ":{"ha":361,"x_min":0,"x_max":0,"o":"m 56 0 l 240 1042 l 368 1042 l 183 0 m -49 -321 l 44 -78 l 163 -78 l 56 -321 "},"Ľ":{"ha":718,"x_min":0,"x_max":0,"o":"m 69 0 l 240 972 l 376 972 l 226 119 l 649 119 l 628 0 m 418 694 l 522 972 l 646 972 l 524 694 "},"ľ":{"ha":407,"x_min":0,"x_max":0,"o":"m 56 0 l 240 1042 l 368 1042 l 183 0 m 360 764 l 464 1042 l 588 1042 l 465 764 "},"Ŀ":{"ha":718,"x_min":0,"x_max":0,"o":"m 69 0 l 240 972 l 376 972 l 226 119 l 649 119 l 628 0 m 496 436 l 522 590 l 664 590 l 638 436 "},"ŀ":{"ha":382,"x_min":0,"x_max":0,"o":"m 56 0 l 240 1042 l 368 1042 l 183 0 m 324 443 l 349 585 l 476 585 l 451 443 "},"Ł":{"ha":718,"x_min":0,"x_max":0,"o":"m 69 0 l 136 379 l 0 300 l 24 433 l 160 513 l 240 972 l 376 972 l 306 574 l 536 708 l 513 575 l 282 440 l 226 119 l 649 119 l 628 0 "},"ł":{"ha":361,"x_min":0,"x_max":0,"o":"m 56 0 l 135 444 l 32 385 l 56 513 l 157 571 l 240 1042 l 368 1042 l 293 622 l 400 685 l 378 557 l 271 493 l 183 0 "},"Ń":{"ha":1042,"x_min":0,"x_max":0,"o":"m 739 0 l 333 728 l 206 0 l 69 0 l 240 972 l 349 972 l 756 244 l 883 972 l 1019 972 l 849 0 m 625 1032 l 574 1108 l 824 1290 l 890 1194 "},"ń":{"ha":842,"x_min":0,"x_max":0,"o":"m 288 588 b 529 711 351 663 428 711 b 747 481 668 711 747 624 b 736 361 747 440 743 399 l 672 0 l 544 0 l 607 354 b 621 463 613 389 621 426 b 492 594 621 553 578 594 b 267 467 404 594 326 536 l 183 0 l 56 0 l 179 694 l 307 694 m 524 786 l 454 851 l 649 1067 l 732 988 "},"Ņ":{"ha":1042,"x_min":0,"x_max":0,"o":"m 739 0 l 333 728 l 206 0 l 69 0 l 240 972 l 349 972 l 756 244 l 883 972 l 1019 972 l 849 0 m 310 -321 l 403 -78 l 521 -78 l 414 -321 "},"ņ":{"ha":842,"x_min":0,"x_max":0,"o":"m 288 588 b 529 711 351 663 428 711 b 747 481 668 711 747 624 b 736 361 747 440 743 399 l 672 0 l 544 0 l 607 354 b 621 463 613 389 621 426 b 492 594 621 553 578 594 b 267 467 404 594 326 536 l 183 0 l 56 0 l 179 694 l 307 694 m 199 -321 l 292 -78 l 410 -78 l 303 -321 "},"Ň":{"ha":1042,"x_min":0,"x_max":0,"o":"m 739 0 l 333 728 l 206 0 l 69 0 l 240 972 l 349 972 l 756 244 l 883 972 l 1019 972 l 849 0 m 578 1044 l 464 1231 l 546 1289 l 660 1128 l 829 1289 l 896 1231 l 710 1044 "},"ň":{"ha":842,"x_min":0,"x_max":0,"o":"m 288 588 b 529 711 351 663 428 711 b 747 481 668 711 747 624 b 736 361 747 440 743 399 l 672 0 l 544 0 l 607 354 b 621 463 613 389 621 426 b 492 594 621 553 578 594 b 267 467 404 594 326 536 l 183 0 l 56 0 l 179 694 l 307 694 m 357 1015 l 438 1057 l 536 882 l 700 1063 l 771 1004 l 593 790 l 471 790 "},"ŉ":{"ha":878,"x_min":0,"x_max":0,"o":"m 40 694 l 171 1042 l 314 1042 l 161 694 m 324 588 b 565 711 388 663 464 711 b 783 481 704 711 783 624 b 772 361 783 440 779 399 l 708 0 l 581 0 l 643 354 b 657 463 649 389 657 426 b 528 594 657 553 614 594 b 303 467 440 594 363 536 l 219 0 l 92 0 l 215 694 l 343 694 "},"Ŋ":{"ha":1042,"x_min":0,"x_max":0,"o":"m 840 -46 b 782 -218 829 -111 814 -171 b 593 -308 744 -274 683 -308 b 439 -269 540 -308 485 -292 l 490 -161 b 596 -189 524 -176 557 -189 b 671 -150 632 -189 656 -175 b 707 -29 690 -119 699 -76 l 718 36 l 333 728 l 206 0 l 69 0 l 240 972 l 349 972 l 756 244 l 883 972 l 1019 972 "},"ŋ":{"ha":842,"x_min":0,"x_max":0,"o":"m 507 -142 b 539 -33 524 -112 532 -74 l 607 354 b 621 463 613 389 621 426 b 492 594 621 553 578 594 b 267 467 404 594 326 536 l 183 0 l 56 0 l 179 694 l 307 694 l 288 588 b 529 711 351 663 428 711 b 747 481 668 711 747 624 b 736 361 747 440 743 399 l 665 -43 b 443 -308 639 -194 604 -308 b 286 -262 383 -308 346 -293 l 340 -158 b 424 -192 369 -182 401 -192 b 507 -142 464 -192 490 -171 "},"Ō":{"ha":1164,"x_min":0,"x_max":0,"o":"m 244 425 b 561 103 244 253 376 103 b 967 547 808 103 967 311 b 650 869 967 719 835 869 b 244 425 403 869 244 661 m 103 419 b 656 989 103 724 331 989 b 1108 553 906 989 1108 800 b 556 -17 1108 249 881 -17 b 103 419 306 -17 103 172 m 479 1075 l 496 1174 l 954 1174 l 938 1075 "},"ō":{"ha":814,"x_min":0,"x_max":0,"o":"m 56 297 b 435 711 56 514 218 711 b 758 397 617 711 758 582 b 379 -17 758 181 596 -17 b 56 297 197 -17 56 113 m 629 389 b 431 594 629 501 547 594 b 185 306 281 594 185 458 b 383 100 185 193 267 100 b 629 389 533 100 629 236 m 290 844 l 307 942 l 717 942 l 700 844 "},"Ŏ":{"ha":1164,"x_min":0,"x_max":0,"o":"m 244 425 b 561 103 244 253 376 103 b 967 547 808 103 967 311 b 650 869 967 719 835 869 b 244 425 403 869 244 661 m 103 419 b 656 989 103 724 331 989 b 1108 553 906 989 1108 800 b 556 -17 1108 249 881 -17 b 103 419 306 -17 103 172 m 915 1242 b 704 1050 915 1140 826 1050 b 517 1217 596 1050 517 1119 b 518 1242 517 1224 517 1232 l 610 1242 b 608 1224 608 1235 608 1229 b 708 1139 608 1172 646 1139 b 826 1242 771 1139 826 1181 "},"ŏ":{"ha":814,"x_min":0,"x_max":0,"o":"m 56 297 b 435 711 56 514 218 711 b 758 397 617 711 758 582 b 379 -17 758 181 596 -17 b 56 297 197 -17 56 113 m 629 389 b 431 594 629 501 547 594 b 185 306 281 594 185 458 b 383 100 185 193 267 100 b 629 389 533 100 629 236 m 715 1007 b 504 789 715 889 626 789 b 317 976 396 789 317 871 b 318 1007 317 986 317 994 l 410 1007 b 408 978 408 996 408 988 b 508 878 408 924 446 878 b 626 1007 571 878 626 932 "},"Ő":{"ha":1164,"x_min":0,"x_max":0,"o":"m 244 425 b 561 103 244 253 376 103 b 967 547 808 103 967 311 b 650 869 967 719 835 869 b 244 425 403 869 244 661 m 103 419 b 656 989 103 724 331 989 b 1108 553 906 989 1108 800 b 556 -17 1108 249 881 -17 b 103 419 306 -17 103 172 m 525 1032 l 474 1108 l 724 1290 l 790 1194 m 818 1032 l 767 1108 l 1007 1285 l 1074 1189 "},"ő":{"ha":814,"x_min":0,"x_max":0,"o":"m 56 297 b 435 711 56 514 218 711 b 758 397 617 711 758 582 b 379 -17 758 181 596 -17 b 56 297 197 -17 56 113 m 629 389 b 431 594 629 501 547 594 b 185 306 281 594 185 458 b 383 100 185 193 267 100 b 629 389 533 100 629 236 m 400 797 l 331 863 l 535 1088 l 618 1008 m 613 786 l 543 851 l 738 1067 l 821 988 "},"Œ":{"ha":1475,"x_min":0,"x_max":0,"o":"m 738 0 l 742 26 b 556 -17 685 -3 621 -17 b 103 419 306 -17 103 172 b 656 989 103 724 331 989 b 897 911 751 989 840 957 l 908 972 l 1494 972 l 1474 853 l 1024 853 l 972 561 l 1422 561 l 1401 442 l 951 442 l 894 119 l 1344 119 l 1324 0 m 561 103 b 765 158 639 103 707 122 l 874 776 b 650 869 818 833 740 869 b 244 425 403 869 244 661 b 561 103 244 253 376 103 "},"œ":{"ha":1347,"x_min":0,"x_max":0,"o":"m 56 297 b 435 711 56 514 218 711 b 710 557 563 711 663 646 b 990 710 769 642 865 710 b 1292 422 1178 710 1292 596 b 1275 315 1292 389 1285 344 l 744 315 l 744 306 b 933 92 744 189 821 92 b 1144 206 1015 92 1096 136 l 1236 131 b 926 -17 1151 31 1047 -17 b 663 135 800 -17 710 47 b 379 -17 601 50 506 -17 b 56 297 197 -17 56 113 m 629 389 b 431 594 629 501 547 594 b 185 306 281 594 185 458 b 383 100 185 193 267 100 b 629 389 533 100 629 236 m 990 603 b 763 417 878 603 797 519 l 1161 417 b 1163 435 1163 422 1163 429 b 990 603 1163 526 1090 603 "},"Ŕ":{"ha":851,"x_min":0,"x_max":0,"o":"m 461 972 b 685 939 560 972 629 963 b 817 731 764 904 817 840 b 607 439 817 568 731 479 b 526 419 582 431 556 424 l 756 0 l 603 0 l 381 411 l 278 411 l 206 0 l 69 0 l 240 972 m 299 531 l 393 531 b 575 560 465 531 526 538 b 675 711 633 586 675 632 b 626 819 675 764 657 797 b 443 853 589 846 533 853 l 356 853 m 490 1032 l 439 1108 l 689 1290 l 756 1194 "},"ŕ":{"ha":508,"x_min":0,"x_max":0,"o":"m 56 0 l 179 694 l 307 694 l 289 593 b 483 711 332 663 399 711 b 557 703 513 711 531 708 l 508 568 b 446 582 490 578 472 582 b 268 476 365 582 308 546 l 183 0 m 371 786 l 301 851 l 496 1067 l 579 988 "},"Ŗ":{"ha":851,"x_min":0,"x_max":0,"o":"m 461 972 b 685 939 560 972 629 963 b 817 731 764 904 817 840 b 607 439 817 568 731 479 b 526 419 582 431 556 424 l 756 0 l 603 0 l 381 411 l 278 411 l 206 0 l 69 0 l 240 972 m 299 531 l 393 531 b 575 560 465 531 526 538 b 675 711 633 586 675 632 b 626 819 675 764 657 797 b 443 853 589 846 533 853 l 356 853 m 232 -321 l 325 -78 l 443 -78 l 336 -321 "},"ŗ":{"ha":508,"x_min":0,"x_max":0,"o":"m 56 0 l 179 694 l 307 694 l 289 593 b 483 711 332 663 399 711 b 557 703 513 711 531 708 l 508 568 b 446 582 490 578 472 582 b 268 476 365 582 308 546 l 183 0 m -49 -321 l 44 -78 l 163 -78 l 56 -321 "},"Ř":{"ha":851,"x_min":0,"x_max":0,"o":"m 461 972 b 685 939 560 972 629 963 b 817 731 764 904 817 840 b 607 439 817 568 731 479 b 526 419 582 431 556 424 l 756 0 l 603 0 l 381 411 l 278 411 l 206 0 l 69 0 l 240 972 m 299 531 l 393 531 b 575 560 465 531 526 538 b 675 711 633 586 675 632 b 626 819 675 764 657 797 b 443 853 589 846 533 853 l 356 853 m 456 1044 l 342 1231 l 424 1289 l 538 1128 l 707 1289 l 774 1231 l 588 1044 "},"ř":{"ha":508,"x_min":0,"x_max":0,"o":"m 56 0 l 179 694 l 307 694 l 289 593 b 483 711 332 663 399 711 b 557 703 513 711 531 708 l 508 568 b 446 582 490 578 472 582 b 268 476 365 582 308 546 l 183 0 m 210 1015 l 290 1057 l 389 882 l 553 1063 l 624 1004 l 446 790 l 324 790 "},"Ś":{"ha":838,"x_min":0,"x_max":0,"o":"m 118 224 b 382 103 196 131 281 103 b 583 289 478 103 583 174 b 394 463 583 392 492 425 b 171 703 286 504 171 551 b 494 989 171 889 346 989 b 808 865 613 989 738 940 l 719 779 b 488 869 665 836 596 869 b 304 724 396 869 304 815 b 507 565 304 632 404 607 b 726 285 615 521 726 458 b 371 -17 726 115 564 -17 b 24 138 229 -17 118 24 m 515 1032 l 464 1108 l 714 1290 l 781 1194 "},"ś":{"ha":606,"x_min":0,"x_max":0,"o":"m 101 178 b 264 89 138 126 197 89 b 383 197 325 89 383 128 b 244 319 383 261 314 285 b 104 500 175 354 104 397 b 339 711 104 638 231 711 b 567 624 425 711 515 678 l 478 543 b 336 606 447 574 388 606 b 225 511 281 606 225 574 b 367 393 225 454 296 429 b 513 201 439 356 513 307 b 251 -17 513 57 381 -17 b 10 110 151 -17 57 25 m 397 786 l 328 851 l 522 1067 l 606 988 "},"Ŝ":{"ha":838,"x_min":0,"x_max":0,"o":"m 118 224 b 382 103 196 131 281 103 b 583 289 478 103 583 174 b 394 463 583 392 492 425 b 171 703 286 504 171 551 b 494 989 171 889 346 989 b 808 865 613 989 738 940 l 719 779 b 488 869 665 836 596 869 b 304 724 396 869 304 815 b 507 565 304 632 404 607 b 726 285 615 521 726 458 b 371 -17 726 115 564 -17 b 24 138 229 -17 118 24 m 647 1281 l 761 1094 l 679 1036 l 565 1197 l 396 1036 l 329 1094 l 515 1281 "},"ŝ":{"ha":606,"x_min":0,"x_max":0,"o":"m 101 178 b 264 89 138 126 197 89 b 383 197 325 89 383 128 b 244 319 383 261 314 285 b 104 500 175 354 104 397 b 339 711 104 638 231 711 b 567 624 425 711 515 678 l 478 543 b 336 606 447 574 388 606 b 225 511 281 606 225 574 b 367 393 225 454 296 429 b 513 201 439 356 513 307 b 251 -17 513 57 381 -17 b 10 110 151 -17 57 25 m 600 829 l 519 788 l 421 963 l 257 782 l 186 840 l 364 1054 l 486 1054 "},"Ş":{"ha":838,"x_min":0,"x_max":0,"o":"m 118 224 b 382 103 196 131 281 103 b 583 289 478 103 583 174 b 394 463 583 392 492 425 b 171 703 286 504 171 551 b 494 989 171 889 346 989 b 808 865 613 989 738 940 l 719 779 b 488 869 665 836 596 869 b 304 724 396 869 304 815 b 507 565 304 632 404 607 b 726 285 615 521 726 458 b 371 -17 726 115 564 -17 l 356 -17 l 314 -90 l 315 -92 b 385 -69 339 -76 363 -69 b 486 -179 442 -69 486 -117 b 318 -340 486 -261 404 -340 b 178 -258 260 -340 206 -318 l 264 -219 b 324 -264 271 -247 292 -264 b 392 -189 361 -264 392 -229 b 340 -137 392 -160 372 -137 b 281 -171 318 -137 293 -149 l 201 -125 l 275 -10 b 24 138 178 7 96 50 "},"ş":{"ha":606,"x_min":0,"x_max":0,"o":"m 101 178 b 264 89 138 126 197 89 b 383 197 325 89 383 128 b 244 319 383 261 314 285 b 104 500 175 354 104 397 b 339 711 104 638 231 711 b 567 624 425 711 515 678 l 478 543 b 336 606 447 574 388 606 b 225 511 281 606 225 574 b 367 393 225 454 296 429 b 513 201 439 356 513 307 b 249 -17 513 57 382 -17 l 208 -90 l 210 -92 b 279 -69 233 -76 257 -69 b 381 -179 336 -69 381 -117 b 213 -340 381 -261 299 -340 b 72 -258 154 -340 100 -318 l 158 -219 b 218 -264 165 -247 186 -264 b 286 -189 256 -264 286 -229 b 235 -137 286 -160 267 -137 b 175 -171 213 -137 188 -149 l 97 -126 l 169 -7 b 10 110 103 10 43 49 "},"Š":{"ha":838,"x_min":0,"x_max":0,"o":"m 118 224 b 382 103 196 131 281 103 b 583 289 478 103 583 174 b 394 463 583 392 492 425 b 171 703 286 504 171 551 b 494 989 171 889 346 989 b 808 865 613 989 738 940 l 719 779 b 488 869 665 836 596 869 b 304 724 396 869 304 815 b 507 565 304 632 404 607 b 726 285 615 521 726 458 b 371 -17 726 115 564 -17 b 24 138 229 -17 118 24 m 476 1044 l 363 1231 l 444 1289 l 558 1128 l 728 1289 l 794 1231 l 608 1044 "},"š":{"ha":606,"x_min":0,"x_max":0,"o":"m 101 178 b 264 89 138 126 197 89 b 383 197 325 89 383 128 b 244 319 383 261 314 285 b 104 500 175 354 104 397 b 339 711 104 638 231 711 b 567 624 425 711 515 678 l 478 543 b 336 606 447 574 388 606 b 225 511 281 606 225 574 b 367 393 225 454 296 429 b 513 201 439 356 513 307 b 251 -17 513 57 381 -17 b 10 110 151 -17 57 25 m 213 1015 l 293 1057 l 392 882 l 556 1063 l 626 1004 l 449 790 l 326 790 "},"Ș":{"ha":838,"x_min":0,"x_max":0,"o":"m 118 224 b 382 103 196 131 281 103 b 583 289 478 103 583 174 b 394 463 583 392 492 425 b 171 703 286 504 171 551 b 494 989 171 889 346 989 b 808 865 613 989 738 940 l 719 779 b 488 869 665 836 596 869 b 304 724 396 869 304 815 b 507 565 304 632 404 607 b 726 285 615 521 726 458 b 371 -17 726 115 564 -17 b 24 138 229 -17 118 24 m 135 -321 l 228 -78 l 346 -78 l 239 -321 "},"ș":{"ha":606,"x_min":0,"x_max":0,"o":"m 101 178 b 264 89 138 126 197 89 b 383 197 325 89 383 128 b 244 319 383 261 314 285 b 104 500 175 354 104 397 b 339 711 104 638 231 711 b 567 624 425 711 515 678 l 478 543 b 336 606 447 574 388 606 b 225 511 281 606 225 574 b 367 393 225 454 296 429 b 513 201 439 356 513 307 b 251 -17 513 57 381 -17 b 10 110 151 -17 57 25 m 46 -321 l 139 -78 l 257 -78 l 150 -321 "},"Ţ":{"ha":678,"x_min":0,"x_max":0,"o":"m 318 0 l 267 -90 l 268 -92 b 338 -69 292 -76 315 -69 b 439 -179 394 -69 439 -117 b 271 -340 439 -261 357 -340 b 131 -258 213 -340 158 -318 l 217 -219 b 276 -264 224 -247 244 -264 b 344 -189 314 -264 344 -229 b 293 -137 344 -160 325 -137 b 233 -171 271 -137 246 -149 l 154 -125 l 235 0 l 210 0 l 360 853 l 117 853 l 138 972 l 760 972 l 739 853 l 496 853 l 346 0 "},"ţ":{"ha":492,"x_min":0,"x_max":0,"o":"m 186 694 l 215 861 l 343 861 l 314 694 l 506 694 l 486 583 l 294 583 l 236 260 b 228 178 231 225 228 201 b 310 99 228 128 258 99 b 385 119 328 99 360 104 l 411 18 b 276 -14 381 -1 322 -14 b 235 -10 261 -14 249 -12 l 190 -90 l 192 -92 b 261 -69 215 -76 239 -69 b 363 -179 318 -69 363 -117 b 194 -340 363 -261 281 -340 b 54 -258 136 -340 82 -318 l 140 -219 b 200 -264 147 -247 168 -264 b 268 -189 238 -264 268 -229 b 217 -137 268 -160 249 -137 b 157 -171 194 -137 169 -149 l 79 -126 l 165 19 b 97 158 122 51 97 100 b 107 249 97 189 101 217 l 167 583 l 72 583 l 92 694 "},"Ť":{"ha":678,"x_min":0,"x_max":0,"o":"m 210 0 l 360 853 l 117 853 l 138 972 l 760 972 l 739 853 l 496 853 l 346 0 m 392 1044 l 278 1231 l 360 1289 l 474 1128 l 643 1289 l 710 1231 l 524 1044 "},"ť":{"ha":492,"x_min":0,"x_max":0,"o":"m 186 694 l 215 861 l 343 861 l 314 694 l 506 694 l 486 583 l 294 583 l 236 260 b 228 178 231 225 228 201 b 310 99 228 128 258 99 b 385 119 328 99 360 104 l 411 18 b 276 -14 381 -1 322 -14 b 97 158 171 -14 97 60 b 107 249 97 189 101 217 l 167 583 l 72 583 l 92 694 m 404 764 l 508 1042 l 632 1042 l 510 764 "},"Ŧ":{"ha":678,"x_min":0,"x_max":0,"o":"m 210 0 l 288 446 l 136 446 l 156 556 l 307 556 l 360 853 l 117 853 l 138 972 l 760 972 l 739 853 l 496 853 l 443 556 l 594 556 l 575 446 l 424 446 l 346 0 "},"ŧ":{"ha":492,"x_min":0,"x_max":0,"o":"m 186 694 l 215 861 l 343 861 l 314 694 l 506 694 l 486 583 l 294 583 l 264 417 l 457 417 l 439 317 l 246 317 l 236 260 b 228 178 231 225 228 201 b 310 99 228 128 258 99 b 385 119 328 99 360 104 l 411 18 b 276 -14 381 -1 322 -14 b 97 158 171 -14 97 60 b 107 249 97 189 101 217 l 119 317 l 25 317 l 43 417 l 138 417 l 167 583 l 72 583 l 92 694 "},"Ț":{"ha":678,"x_min":0,"x_max":0,"o":"m 210 0 l 360 853 l 117 853 l 138 972 l 760 972 l 739 853 l 496 853 l 346 0 m 110 -321 l 203 -78 l 321 -78 l 214 -321 "},"ț":{"ha":492,"x_min":0,"x_max":0,"o":"m 186 694 l 215 861 l 343 861 l 314 694 l 506 694 l 486 583 l 294 583 l 236 260 b 228 178 231 225 228 201 b 310 99 228 128 258 99 b 385 119 328 99 360 104 l 411 18 b 276 -14 381 -1 322 -14 b 97 158 171 -14 97 60 b 107 249 97 189 101 217 l 167 583 l 72 583 l 92 694 m 28 -321 l 121 -78 l 239 -78 l 132 -321 "},"Ũ":{"ha":1003,"x_min":0,"x_max":0,"o":"m 369 972 l 272 422 b 263 321 267 389 263 354 b 479 103 263 179 353 103 b 683 224 565 103 636 144 b 753 422 715 276 739 343 l 850 972 l 986 972 l 896 457 b 801 161 875 338 846 239 b 475 -17 732 42 617 -17 b 128 300 281 -17 128 78 b 143 457 128 351 133 404 l 233 972 m 392 1071 l 392 1088 b 543 1236 392 1167 450 1236 b 658 1192 593 1236 629 1215 b 739 1144 688 1169 713 1144 b 796 1204 774 1144 796 1169 l 886 1208 l 886 1192 b 735 1043 886 1113 828 1043 b 619 1088 685 1043 649 1064 b 539 1135 590 1110 565 1135 b 482 1075 504 1135 482 1110 "},"ũ":{"ha":842,"x_min":0,"x_max":0,"o":"m 554 107 b 313 -17 490 32 414 -17 b 94 214 174 -17 94 71 b 106 333 94 254 99 296 l 169 694 l 297 694 l 235 340 b 221 232 229 306 221 268 b 350 100 221 142 264 100 b 575 228 438 100 515 158 l 658 694 l 786 694 l 663 0 l 535 0 m 772 969 l 772 957 b 628 808 772 876 722 808 b 515 851 578 808 543 829 b 432 897 485 874 463 897 b 374 839 397 897 374 872 l 285 835 l 285 847 b 429 996 285 928 335 996 b 542 953 479 996 514 975 b 625 907 572 931 594 907 b 683 965 660 907 683 932 "},"Ū":{"ha":1003,"x_min":0,"x_max":0,"o":"m 369 972 l 272 422 b 263 321 267 389 263 354 b 479 103 263 179 353 103 b 683 224 565 103 636 144 b 753 422 715 276 739 343 l 850 972 l 986 972 l 896 457 b 801 161 875 338 846 239 b 475 -17 732 42 617 -17 b 128 300 281 -17 128 78 b 143 457 128 351 133 404 l 233 972 m 399 1075 l 415 1174 l 874 1174 l 857 1075 "},"ū":{"ha":842,"x_min":0,"x_max":0,"o":"m 554 107 b 313 -17 490 32 414 -17 b 94 214 174 -17 94 71 b 106 333 94 254 99 296 l 169 694 l 297 694 l 235 340 b 221 232 229 306 221 268 b 350 100 221 142 264 100 b 575 228 438 100 515 158 l 658 694 l 786 694 l 663 0 l 535 0 m 299 844 l 315 942 l 725 942 l 708 844 "},"Ŭ":{"ha":1003,"x_min":0,"x_max":0,"o":"m 369 972 l 272 422 b 263 321 267 389 263 354 b 479 103 263 179 353 103 b 683 224 565 103 636 144 b 753 422 715 276 739 343 l 850 972 l 986 972 l 896 457 b 801 161 875 338 846 239 b 475 -17 732 42 617 -17 b 128 300 281 -17 128 78 b 143 457 128 351 133 404 l 233 972 m 853 1242 b 642 1050 853 1140 764 1050 b 454 1217 533 1050 454 1119 b 456 1242 454 1224 454 1232 l 547 1242 b 546 1224 546 1235 546 1229 b 646 1139 546 1172 583 1139 b 764 1242 708 1139 764 1181 "},"ŭ":{"ha":842,"x_min":0,"x_max":0,"o":"m 554 107 b 313 -17 490 32 414 -17 b 94 214 174 -17 94 71 b 106 333 94 254 99 296 l 169 694 l 297 694 l 235 340 b 221 232 229 306 221 268 b 350 100 221 142 264 100 b 575 228 438 100 515 158 l 658 694 l 786 694 l 663 0 l 535 0 m 725 1007 b 514 789 725 889 636 789 b 326 976 406 789 326 871 b 328 1007 326 986 326 994 l 419 1007 b 418 978 418 996 418 988 b 518 878 418 924 456 878 b 636 1007 581 878 636 932 "},"Ů":{"ha":1003,"x_min":0,"x_max":0,"o":"m 369 972 l 272 422 b 263 321 267 389 263 354 b 479 103 263 179 353 103 b 683 224 565 103 636 144 b 753 422 715 276 739 343 l 850 972 l 986 972 l 896 457 b 801 161 875 338 846 239 b 475 -17 732 42 617 -17 b 128 300 281 -17 128 78 b 143 457 128 351 133 404 l 233 972 m 511 1138 b 640 1267 511 1208 569 1267 b 769 1138 711 1267 769 1208 b 640 1008 769 1067 711 1008 b 511 1138 569 1008 511 1067 m 579 1138 b 640 1076 579 1104 607 1076 b 701 1138 674 1076 701 1104 b 640 1199 701 1171 674 1199 b 579 1138 607 1199 579 1171 "},"ů":{"ha":842,"x_min":0,"x_max":0,"o":"m 554 107 b 313 -17 490 32 414 -17 b 94 214 174 -17 94 71 b 106 333 94 254 99 296 l 169 694 l 297 694 l 235 340 b 221 232 229 306 221 268 b 350 100 221 142 264 100 b 575 228 438 100 515 158 l 658 694 l 786 694 l 663 0 l 535 0 m 381 879 b 510 1008 381 950 439 1008 b 639 879 581 1008 639 950 b 510 750 639 808 581 750 b 381 879 439 750 381 808 m 449 879 b 510 818 449 846 476 818 b 571 879 543 818 571 846 b 510 940 571 913 543 940 b 449 879 476 940 449 913 "},"Ű":{"ha":1003,"x_min":0,"x_max":0,"o":"m 369 972 l 272 422 b 263 321 267 389 263 354 b 479 103 263 179 353 103 b 683 224 565 103 636 144 b 753 422 715 276 739 343 l 850 972 l 986 972 l 896 457 b 801 161 875 338 846 239 b 475 -17 732 42 617 -17 b 128 300 281 -17 128 78 b 143 457 128 351 133 404 l 233 972 m 451 1032 l 400 1108 l 650 1290 l 717 1194 m 744 1032 l 693 1108 l 933 1285 l 1000 1189 "},"ű":{"ha":842,"x_min":0,"x_max":0,"o":"m 554 107 b 313 -17 490 32 414 -17 b 94 214 174 -17 94 71 b 106 333 94 254 99 296 l 169 694 l 297 694 l 235 340 b 221 232 229 306 221 268 b 350 100 221 142 264 100 b 575 228 438 100 515 158 l 658 694 l 786 694 l 663 0 l 535 0 m 389 797 l 319 863 l 524 1088 l 607 1008 m 601 786 l 532 851 l 726 1067 l 810 988 "},"Ų":{"ha":1003,"x_min":0,"x_max":0,"o":"m 400 -11 b 128 300 242 11 128 107 b 143 457 128 351 133 404 l 233 972 l 369 972 l 272 422 b 263 321 267 389 263 354 b 479 103 263 179 353 103 b 683 224 565 103 636 144 b 753 422 715 276 739 343 l 850 972 l 986 972 l 896 457 b 801 161 875 338 847 239 b 554 -11 743 63 664 11 b 393 -176 471 -28 393 -104 b 435 -214 393 -199 407 -214 b 504 -192 460 -214 483 -204 l 542 -268 b 417 -308 507 -296 458 -308 b 278 -189 343 -308 278 -267 b 400 -11 278 -110 331 -53 "},"ų":{"ha":842,"x_min":0,"x_max":0,"o":"m 376 -189 b 535 0 376 -97 446 -36 l 554 107 b 313 -17 490 32 414 -17 b 94 214 174 -17 94 71 b 106 333 94 254 99 296 l 169 694 l 297 694 l 235 340 b 221 232 229 306 221 268 b 350 100 221 142 264 100 b 575 228 438 100 515 158 l 658 694 l 786 694 l 663 0 b 492 -176 588 -18 492 -85 b 533 -214 492 -199 506 -214 b 603 -192 558 -214 582 -204 l 640 -268 b 515 -308 606 -296 557 -308 b 376 -189 442 -308 376 -267 "},"Ŵ":{"ha":1246,"x_min":0,"x_max":0,"o":"m 889 0 l 753 0 l 689 740 l 686 740 l 344 0 l 214 0 l 115 972 l 258 972 l 324 239 l 326 239 l 660 972 l 788 972 l 853 239 l 856 239 l 1189 972 l 1336 972 m 847 1281 l 961 1094 l 879 1036 l 765 1197 l 596 1036 l 529 1094 l 715 1281 "},"ŵ":{"ha":996,"x_min":0,"x_max":0,"o":"m 729 0 l 585 0 l 533 540 l 531 540 l 283 0 l 132 0 l 64 694 l 196 694 l 235 147 l 238 147 l 489 694 l 629 694 l 672 147 l 676 147 l 915 694 l 1051 694 m 789 829 l 708 788 l 610 963 l 446 782 l 375 840 l 553 1054 l 675 1054 "},"Ẁ":{"ha":1246,"x_min":0,"x_max":0,"o":"m 889 0 l 753 0 l 689 740 l 686 740 l 344 0 l 214 0 l 115 972 l 258 972 l 324 239 l 326 239 l 660 972 l 788 972 l 853 239 l 856 239 l 1189 972 l 1336 972 m 551 1207 l 639 1300 l 840 1103 l 771 1028 "},"ẁ":{"ha":996,"x_min":0,"x_max":0,"o":"m 729 0 l 585 0 l 533 540 l 531 540 l 283 0 l 132 0 l 64 694 l 196 694 l 235 147 l 238 147 l 489 694 l 629 694 l 672 147 l 676 147 l 915 694 l 1051 694 m 396 1028 l 494 1088 l 640 836 l 558 786 "},"Ẃ":{"ha":1246,"x_min":0,"x_max":0,"o":"m 889 0 l 753 0 l 689 740 l 686 740 l 344 0 l 214 0 l 115 972 l 258 972 l 324 239 l 326 239 l 660 972 l 788 972 l 853 239 l 856 239 l 1189 972 l 1336 972 m 711 1032 l 660 1108 l 910 1290 l 976 1194 "},"ẃ":{"ha":996,"x_min":0,"x_max":0,"o":"m 729 0 l 585 0 l 533 540 l 531 540 l 283 0 l 132 0 l 64 694 l 196 694 l 235 147 l 238 147 l 489 694 l 629 694 l 672 147 l 676 147 l 915 694 l 1051 694 m 581 786 l 511 851 l 706 1067 l 789 988 "},"Ẅ":{"ha":1246,"x_min":0,"x_max":0,"o":"m 889 0 l 753 0 l 689 740 l 686 740 l 344 0 l 214 0 l 115 972 l 258 972 l 324 239 l 326 239 l 660 972 l 788 972 l 853 239 l 856 239 l 1189 972 l 1336 972 m 857 1061 l 883 1215 l 1025 1215 l 999 1061 m 482 1061 l 508 1215 l 650 1215 l 624 1061 "},"ẅ":{"ha":996,"x_min":0,"x_max":0,"o":"m 729 0 l 585 0 l 533 540 l 531 540 l 283 0 l 132 0 l 64 694 l 196 694 l 235 147 l 238 147 l 489 694 l 629 694 l 672 147 l 676 147 l 915 694 l 1051 694 m 379 831 l 404 972 l 532 972 l 507 831 m 661 831 l 686 972 l 814 972 l 789 831 "},"Ỳ":{"ha":772,"x_min":0,"x_max":0,"o":"m 269 972 l 415 564 l 419 564 l 706 972 l 869 972 l 460 417 l 386 0 l 250 0 l 325 429 l 115 972 m 351 1207 l 439 1300 l 640 1103 l 571 1028 "},"ỳ":{"ha":654,"x_min":0,"x_max":0,"o":"m 564 694 l 708 694 l 143 -317 l 38 -262 l 192 17 l 56 694 l 190 694 l 281 160 l 283 160 m 261 1028 l 360 1088 l 506 836 l 424 786 "},"Ŷ":{"ha":772,"x_min":0,"x_max":0,"o":"m 269 972 l 415 564 l 419 564 l 706 972 l 869 972 l 460 417 l 386 0 l 250 0 l 325 429 l 115 972 m 608 1281 l 722 1094 l 640 1036 l 526 1197 l 357 1036 l 290 1094 l 476 1281 "},"ŷ":{"ha":654,"x_min":0,"x_max":0,"o":"m 564 694 l 708 694 l 143 -317 l 38 -262 l 192 17 l 56 694 l 190 694 l 281 160 l 283 160 m 607 829 l 526 788 l 428 963 l 264 782 l 193 840 l 371 1054 l 493 1054 "},"Ÿ":{"ha":772,"x_min":0,"x_max":0,"o":"m 599 1061 l 625 1215 l 767 1215 l 740 1061 m 279 1061 l 306 1215 l 447 1215 l 421 1061 m 269 972 l 415 564 l 419 564 l 706 972 l 869 972 l 460 417 l 386 0 l 250 0 l 325 429 l 115 972 "},"Ź":{"ha":772,"x_min":0,"x_max":0,"o":"m 694 119 l 682 0 l 21 0 l 35 111 l 596 853 l 168 853 l 179 972 l 800 972 l 794 894 l 208 119 m 457 1032 l 406 1108 l 656 1290 l 722 1194 "},"ź":{"ha":614,"x_min":0,"x_max":0,"o":"m 26 75 l 411 583 l 104 583 l 115 694 l 604 694 l 600 639 l 200 111 l 526 111 l 515 0 l 21 0 m 388 786 l 318 851 l 513 1067 l 596 988 "},"Ż":{"ha":772,"x_min":0,"x_max":0,"o":"m 694 119 l 682 0 l 21 0 l 35 111 l 596 853 l 168 853 l 179 972 l 800 972 l 794 894 l 208 119 m 429 1061 l 456 1215 l 597 1215 l 571 1061 "},"ż":{"ha":614,"x_min":0,"x_max":0,"o":"m 26 75 l 411 583 l 104 583 l 115 694 l 604 694 l 600 639 l 200 111 l 526 111 l 515 0 l 21 0 m 311 831 l 336 972 l 464 972 l 439 831 "},"Ž":{"ha":772,"x_min":0,"x_max":0,"o":"m 694 119 l 682 0 l 21 0 l 35 111 l 596 853 l 168 853 l 179 972 l 800 972 l 794 894 l 208 119 m 431 1044 l 317 1231 l 399 1289 l 513 1128 l 682 1289 l 749 1231 l 563 1044 "},"ž":{"ha":614,"x_min":0,"x_max":0,"o":"m 26 75 l 411 583 l 104 583 l 115 694 l 604 694 l 600 639 l 200 111 l 526 111 l 515 0 l 21 0 m 225 1015 l 306 1057 l 404 882 l 568 1063 l 639 1004 l 461 790 l 339 790 "},"ſ":{"ha":447,"x_min":0,"x_max":0,"o":"m 550 922 b 468 942 526 935 501 942 b 322 782 374 942 343 899 l 183 0 l 56 0 l 196 794 b 454 1058 224 956 297 1058 b 600 1026 504 1058 551 1047 "},"ȷ":{"ha":372,"x_min":0,"x_max":0,"o":"m 186 -43 b -36 -308 160 -194 125 -308 b -193 -262 -96 -308 -133 -293 l -139 -158 b -56 -192 -110 -182 -78 -192 b 28 -142 -15 -192 11 -171 b 60 -33 44 -112 53 -74 l 189 694 l 317 694 "},"ﬀ":{"ha":939,"x_min":0,"x_max":0,"o":"m 313 583 l 210 0 l 82 0 l 185 583 l 106 583 l 125 694 l 204 694 l 222 792 b 476 1058 251 949 308 1058 b 625 1028 528 1058 581 1047 l 582 924 b 482 942 554 936 518 942 b 349 782 394 942 367 888 l 333 694 l 492 694 l 472 583 m 782 583 l 679 0 l 551 0 l 654 583 l 575 583 l 594 694 l 674 694 l 692 792 b 946 1058 721 949 778 1058 b 1094 1028 997 1058 1050 1047 l 1051 924 b 951 942 1024 936 988 942 b 818 782 864 942 836 888 l 803 694 l 986 694 l 967 583 "},"ﬁ":{"ha":831,"x_min":0,"x_max":0,"o":"m 313 583 l 210 0 l 82 0 l 185 583 l 106 583 l 125 694 l 204 694 l 222 792 b 475 1058 253 958 315 1058 b 597 1038 519 1058 560 1051 l 560 931 b 479 942 533 939 507 942 b 349 782 389 942 365 878 l 333 694 l 517 694 l 497 583 m 672 831 l 697 972 l 825 972 l 800 831 m 653 0 l 525 0 l 649 694 l 776 694 "},"ﬂ":{"ha":831,"x_min":0,"x_max":0,"o":"m 313 583 l 210 0 l 82 0 l 185 583 l 106 583 l 125 694 l 204 694 l 222 792 b 475 1058 253 958 315 1058 b 597 1038 519 1058 560 1051 l 560 931 b 479 942 533 939 507 942 b 349 782 389 942 365 878 l 333 694 l 517 694 l 497 583 m 525 0 l 710 1042 l 838 1042 l 653 0 "},"ﬃ":{"ha":1300,"x_min":0,"x_max":0,"o":"m 313 583 l 210 0 l 82 0 l 185 583 l 106 583 l 125 694 l 204 694 l 222 792 b 476 1058 251 949 308 1058 b 625 1028 528 1058 581 1047 l 582 924 b 482 942 554 936 518 942 b 349 782 394 942 367 888 l 333 694 l 492 694 l 472 583 m 782 583 l 679 0 l 551 0 l 654 583 l 575 583 l 594 694 l 674 694 l 692 792 b 944 1058 722 958 785 1058 b 1067 1038 989 1058 1029 1051 l 1029 931 b 949 942 1003 939 976 942 b 818 782 858 942 835 878 l 803 694 l 986 694 l 967 583 m 1142 831 l 1167 972 l 1294 972 l 1269 831 m 1122 0 l 994 0 l 1118 694 l 1246 694 "},"ﬄ":{"ha":1300,"x_min":0,"x_max":0,"o":"m 313 583 l 210 0 l 82 0 l 185 583 l 106 583 l 125 694 l 204 694 l 222 792 b 476 1058 251 949 308 1058 b 625 1028 528 1058 581 1047 l 582 924 b 482 942 554 936 518 942 b 349 782 394 942 367 888 l 333 694 l 492 694 l 472 583 m 782 583 l 679 0 l 551 0 l 654 583 l 575 583 l 594 694 l 674 694 l 692 792 b 944 1058 722 958 785 1058 b 1067 1038 989 1058 1029 1051 l 1029 931 b 949 942 1003 939 976 942 b 818 782 858 942 835 878 l 803 694 l 986 694 l 967 583 m 994 0 l 1179 1042 l 1307 1042 l 1122 0 "},"ﬆ":{"ha":1096,"x_min":0,"x_max":0,"o":"m 101 178 b 264 89 138 126 197 89 b 383 197 325 89 383 128 b 244 319 383 261 314 285 b 104 500 175 354 104 397 b 339 711 104 638 231 711 b 567 624 425 711 515 678 l 478 543 b 336 606 447 574 388 606 b 225 511 281 606 225 574 b 367 393 225 454 296 429 b 513 201 439 356 513 307 b 251 -17 513 57 381 -17 b 10 110 151 -17 57 25 m 790 694 l 819 861 l 947 861 l 918 694 l 1110 694 l 1090 583 l 899 583 l 840 260 b 832 178 835 225 832 201 b 914 99 832 128 863 99 b 989 119 932 99 964 104 l 1015 18 b 881 -14 985 -1 926 -14 b 701 158 775 -14 701 60 b 711 249 701 189 706 217 l 771 583 l 676 583 l 696 694 "},"ˆ":{"ha":500,"x_min":0,"x_max":0,"o":"m 457 829 l 376 788 l 278 963 l 114 782 l 43 840 l 221 1054 l 343 1054 "},"ˇ":{"ha":500,"x_min":0,"x_max":0,"o":"m 43 1015 l 124 1057 l 222 882 l 386 1063 l 457 1004 l 279 790 l 157 790 "},"ˉ":{"ha":500,"x_min":0,"x_max":0,"o":"m 36 844 l 53 942 l 463 942 l 446 844 "},"˘":{"ha":500,"x_min":0,"x_max":0,"o":"m 463 1007 b 251 789 463 889 374 789 b 64 976 143 789 64 871 b 65 1007 64 986 64 994 l 157 1007 b 156 978 156 996 156 988 b 256 878 156 924 193 878 b 374 1007 318 878 374 932 "},"¨":{"ha":500,"x_min":0,"x_max":0,"o":"m 32 831 l 57 972 l 185 972 l 160 831 m 314 831 l 339 972 l 467 972 l 442 831 "},"¯":{"ha":500,"x_min":0,"x_max":0,"o":"m 36 844 l 53 942 l 463 942 l 446 844 "},"°":{"ha":642,"x_min":0,"x_max":0,"o":"m 219 754 b 333 638 219 690 269 638 b 450 754 397 638 450 690 b 333 874 450 818 397 874 b 219 754 269 874 219 818 m 125 754 b 333 963 125 867 218 963 b 544 754 446 963 544 867 b 333 549 544 639 446 549 b 125 754 218 549 125 639 "},"´":{"ha":500,"x_min":0,"x_max":0,"o":"m 208 786 l 139 851 l 333 1067 l 417 988 "},"`":{"ha":500,"x_min":0,"x_max":0,"o":"m 97 1028 l 196 1088 l 342 836 l 260 786 "},"¸":{"ha":500,"x_min":0,"x_max":0,"o":"m 221 -90 l 222 -92 b 292 -69 246 -76 269 -69 b 393 -179 349 -69 393 -117 b 225 -340 393 -261 311 -340 b 85 -258 167 -340 113 -318 l 171 -219 b 231 -264 178 -247 199 -264 b 299 -189 268 -264 299 -229 b 247 -137 299 -160 279 -137 b 188 -171 225 -137 200 -149 l 110 -126 l 193 14 l 269 -1 "},"˙":{"ha":500,"x_min":0,"x_max":0,"o":"m 174 831 l 199 972 l 326 972 l 301 831 "},"˚":{"ha":500,"x_min":0,"x_max":0,"o":"m 121 914 b 250 1043 121 985 179 1043 b 379 914 321 1043 379 985 b 250 785 379 843 321 785 b 121 914 179 785 121 843 m 189 914 b 250 853 189 881 217 853 b 311 914 283 853 311 881 b 250 975 311 947 283 975 b 189 914 217 975 189 947 "},"˛":{"ha":500,"x_min":0,"x_max":0,"o":"m 369 17 l 369 0 b 175 -176 276 -14 175 -89 b 217 -214 175 -199 189 -214 b 286 -192 242 -214 265 -204 l 324 -268 b 199 -308 289 -296 240 -308 b 60 -189 125 -308 60 -267 b 238 17 60 -90 144 -25 "},"˜":{"ha":500,"x_min":0,"x_max":0,"o":"m 494 969 l 494 957 b 350 808 494 876 444 808 b 238 851 300 808 265 829 b 154 897 207 874 185 897 b 96 839 119 897 96 872 l 7 835 l 7 847 b 151 996 7 928 57 996 b 264 953 201 996 236 975 b 347 907 294 931 317 907 b 406 965 382 907 406 932 "},"˝":{"ha":500,"x_min":0,"x_max":0,"o":"m 114 797 l 44 863 l 249 1088 l 332 1008 m 326 786 l 257 851 l 451 1067 l 535 988 "},"‰":{"ha":1717,"x_min":0,"x_max":0,"o":"m 142 744 b 379 981 142 872 251 981 b 589 772 506 981 589 892 b 351 536 589 644 479 536 b 142 744 225 536 142 625 m 247 751 b 360 635 247 682 292 635 b 483 765 425 635 483 693 b 371 882 483 835 439 882 b 247 751 306 882 247 824 m 622 200 b 860 436 622 328 732 436 b 1069 228 986 436 1069 347 b 832 -8 1069 100 960 -8 b 622 200 706 -8 622 81 m 728 207 b 840 90 728 138 772 90 b 964 221 906 90 964 149 b 851 338 964 290 919 338 b 728 207 786 338 728 279 m 1158 200 b 1396 436 1158 328 1268 436 b 1606 228 1522 436 1606 347 b 1368 -8 1606 100 1496 -8 b 1158 200 1242 -8 1158 81 m 1264 207 b 1376 90 1264 138 1308 90 b 1500 221 1442 90 1500 149 b 1388 338 1500 290 1456 338 b 1264 207 1322 338 1264 279 m 217 -19 l 144 42 l 1000 992 l 1072 931 "},"%":{"ha":1181,"x_min":0,"x_max":0,"o":"m 142 744 b 379 981 142 872 251 981 b 589 772 506 981 589 892 b 351 536 589 644 479 536 b 142 744 225 536 142 625 m 247 751 b 360 635 247 682 292 635 b 483 765 425 635 483 693 b 371 882 483 835 439 882 b 247 751 306 882 247 824 m 622 200 b 860 436 622 328 732 436 b 1069 228 986 436 1069 347 b 832 -8 1069 100 960 -8 b 622 200 706 -8 622 81 m 728 207 b 840 90 728 138 772 90 b 964 221 906 90 964 149 b 851 338 964 290 919 338 b 728 207 786 338 728 279 m 217 -19 l 144 42 l 1000 992 l 1072 931 "},"⁄":{"ha":183,"x_min":0,"x_max":0,"o":"m -286 -19 l -358 42 l 497 992 l 569 931 "},"⁰":{"ha":469,"x_min":0,"x_max":0,"o":"m 244 590 b 392 881 358 590 392 789 b 324 989 392 954 367 989 b 176 699 210 989 176 790 b 244 590 176 625 201 590 m 321 1076 b 494 864 433 1076 494 997 b 247 503 494 725 431 503 b 74 715 135 503 74 582 b 321 1076 74 856 138 1076 "},"¹":{"ha":300,"x_min":0,"x_max":0,"o":"m 122 510 l 199 946 b 114 910 172 933 139 919 l 131 1008 b 257 1069 168 1026 217 1049 l 322 1069 l 224 510 "},"²":{"ha":443,"x_min":0,"x_max":0,"o":"m 65 593 b 297 821 140 660 232 750 b 358 939 324 849 358 896 b 300 990 358 971 333 990 b 206 906 253 990 213 954 l 110 931 b 301 1076 131 1022 219 1076 b 461 942 388 1076 461 1025 b 376 767 461 878 419 817 b 204 596 324 707 263 650 l 432 596 l 418 510 l 56 510 l 65 593 "},"³":{"ha":443,"x_min":0,"x_max":0,"o":"m 193 839 b 269 850 222 840 254 844 b 349 938 308 864 349 892 b 286 990 349 968 325 990 b 190 928 244 990 207 965 l 111 972 b 283 1076 144 1040 211 1076 b 449 943 379 1076 449 1025 b 363 807 449 888 415 835 b 438 689 410 790 438 740 b 224 503 438 579 336 503 b 50 613 144 503 72 542 l 135 644 b 219 589 149 606 179 589 b 335 690 272 589 335 628 b 246 756 335 732 297 756 b 186 749 228 756 208 754 l 193 839 "},"⁴":{"ha":464,"x_min":0,"x_max":0,"o":"m 68 746 b 364 1069 154 836 274 967 l 467 1069 l 408 738 l 488 738 l 472 653 l 393 653 l 368 510 l 269 510 l 294 653 l 51 653 m 346 939 b 172 738 296 878 214 781 l 310 738 l 346 939 "},"⁵":{"ha":438,"x_min":0,"x_max":0,"o":"m 254 983 b 221 849 244 939 232 892 b 288 864 244 861 267 864 b 436 714 375 864 436 797 b 221 503 436 606 340 503 b 49 611 142 503 72 546 l 135 646 b 213 590 147 603 181 590 b 333 713 272 590 333 644 b 260 779 333 753 304 779 b 171 740 226 779 194 767 l 106 789 b 172 1069 128 869 157 993 l 468 1069 l 454 983 "},"⁶":{"ha":461,"x_min":0,"x_max":0,"o":"m 442 1017 b 204 826 339 975 251 917 b 311 868 235 856 272 868 b 463 713 403 868 463 803 b 254 503 463 607 374 503 b 68 689 136 503 68 586 b 411 1101 68 888 232 1032 l 442 1017 m 292 783 b 172 718 246 783 200 757 b 168 678 169 704 168 690 b 244 588 168 628 188 588 b 361 714 306 588 361 646 b 292 783 361 757 335 783 "},"⁷":{"ha":388,"x_min":0,"x_max":0,"o":"m 461 1003 b 143 493 367 860 228 638 l 57 536 b 340 982 161 711 279 886 l 93 982 l 108 1069 l 472 1069 "},"⁸":{"ha":479,"x_min":0,"x_max":0,"o":"m 464 692 b 236 503 464 582 356 503 b 75 646 156 503 75 558 b 188 806 75 714 121 774 b 131 908 154 829 131 864 b 339 1076 131 1008 232 1076 b 488 950 418 1076 488 1024 b 393 803 488 889 449 835 b 464 692 435 779 464 739 m 363 689 b 289 757 363 728 333 757 b 176 657 239 757 176 718 b 251 589 176 619 207 589 b 363 689 308 589 363 628 m 389 931 b 322 990 389 967 363 990 b 229 901 272 990 229 949 b 292 843 229 867 256 843 b 389 931 338 843 389 876 "},"⁹":{"ha":461,"x_min":0,"x_max":0,"o":"m 117 563 b 354 753 219 604 307 663 b 247 711 324 724 286 711 b 96 867 156 711 96 776 b 304 1076 96 972 185 1076 b 490 890 422 1076 490 993 b 147 478 490 692 326 547 l 117 563 m 267 796 b 386 861 313 796 358 822 b 390 901 389 875 390 889 b 314 992 390 951 371 992 b 197 865 253 992 197 933 b 267 796 197 822 224 796 "},"⁽":{"ha":301,"x_min":0,"x_max":0,"o":"m 242 364 b 85 696 140 447 85 563 b 382 1164 85 932 214 1079 l 410 1099 b 182 694 286 1031 182 890 b 290 425 182 597 221 492 "},"⁾":{"ha":301,"x_min":0,"x_max":0,"o":"m 151 1164 b 308 832 253 1081 308 965 b 11 364 308 596 179 449 l -17 429 b 211 833 107 497 211 638 b 103 1103 211 931 172 1036 "},"":{"ha":383,"x_min":0,"x_max":0,"o":"m 124 704 l 139 790 l 356 790 l 340 704 "},"":{"ha":231,"x_min":0,"x_max":0,"o":"m 139 401 l 46 401 l 126 621 l 235 621 "},"":{"ha":222,"x_min":0,"x_max":0,"o":"m 94 510 l 115 621 l 224 621 l 203 510 "},"⁻":{"ha":474,"x_min":0,"x_max":0,"o":"m 486 811 l 471 726 l 83 726 l 99 811 "},"⁺":{"ha":464,"x_min":0,"x_max":0,"o":"m 228 726 l 63 726 l 78 811 l 243 811 l 272 978 l 358 978 l 329 811 l 496 811 l 481 726 l 314 726 l 285 560 l 199 560 "},"⁼":{"ha":474,"x_min":0,"x_max":0,"o":"m 499 886 l 485 803 l 97 803 l 111 886 m 472 736 l 458 651 l 71 651 l 85 736 "},"₀":{"ha":469,"x_min":0,"x_max":0,"o":"m 147 -165 b 294 125 261 -165 294 33 b 226 233 294 199 269 233 b 79 -57 113 233 79 35 b 147 -165 79 -131 104 -165 m 224 321 b 397 108 336 321 397 242 b 150 -253 397 -31 333 -253 b -24 -40 38 -253 -24 -174 b 224 321 -24 100 40 321 "},"₁":{"ha":300,"x_min":0,"x_max":0,"o":"m 25 -247 l 101 189 b 17 153 75 176 42 163 l 33 251 b 160 313 71 269 119 292 l 225 313 l 126 -247 "},"₂":{"ha":443,"x_min":0,"x_max":0,"o":"m -32 -164 b 200 64 43 -97 135 -7 b 261 182 226 92 261 139 b 203 233 261 214 236 233 b 108 149 156 233 115 197 l 13 174 b 204 319 33 265 122 319 b 364 185 290 319 364 268 b 279 10 364 121 322 60 b 107 -161 226 -50 165 -107 l 335 -161 l 321 -247 l -42 -247 l -32 -164 "},"₃":{"ha":443,"x_min":0,"x_max":0,"o":"m 96 82 b 172 93 125 83 157 88 b 251 181 211 107 251 135 b 189 233 251 211 228 233 b 93 171 147 233 110 208 l 14 215 b 186 319 47 283 114 319 b 351 186 282 319 351 268 b 265 50 351 131 318 78 b 340 -68 313 33 340 -17 b 126 -254 340 -178 239 -254 b -47 -144 47 -254 -25 -215 l 38 -112 b 122 -168 51 -151 82 -168 b 238 -67 175 -168 238 -129 b 149 -1 238 -25 200 -1 b 89 -8 131 -1 111 -3 l 96 82 "},"₄":{"ha":464,"x_min":0,"x_max":0,"o":"m -29 -11 b 267 313 57 79 176 210 l 369 313 l 311 -19 l 390 -19 l 375 -104 l 296 -104 l 271 -247 l 172 -247 l 197 -104 l -46 -104 m 249 182 b 75 -19 199 121 117 24 l 213 -19 l 249 182 "},"₅":{"ha":438,"x_min":0,"x_max":0,"o":"m 157 226 b 124 92 147 182 135 135 b 190 107 147 104 169 107 b 339 -43 278 107 339 40 b 124 -254 339 -151 243 -254 b -49 -146 44 -254 -25 -211 l 38 -111 b 115 -167 50 -154 83 -167 b 236 -44 175 -167 236 -112 b 163 22 236 -4 207 22 b 74 -17 129 22 97 10 l 8 32 b 75 313 31 113 60 236 l 371 313 l 357 226 "},"₆":{"ha":461,"x_min":0,"x_max":0,"o":"m 344 260 b 107 69 242 218 154 160 b 214 111 138 99 175 111 b 365 -44 306 111 365 46 b 157 -254 365 -150 276 -254 b -29 -68 39 -254 -29 -171 b 314 344 -29 131 135 275 l 344 260 m 194 26 b 75 -39 149 26 103 0 b 71 -79 72 -53 71 -67 b 147 -169 71 -129 90 -169 b 264 -43 208 -169 264 -111 b 194 26 264 0 238 26 "},"₇":{"ha":388,"x_min":0,"x_max":0,"o":"m 364 246 b 46 -264 269 103 131 -119 l -40 -221 b 243 225 64 -46 182 129 l -4 225 l 11 313 l 375 313 "},"₈":{"ha":479,"x_min":0,"x_max":0,"o":"m 367 -65 b 139 -254 367 -175 258 -254 b -22 -111 58 -254 -22 -199 b 90 49 -22 -43 24 17 b 33 151 57 72 33 107 b 242 319 33 251 135 319 b 390 193 321 319 390 267 b 296 46 390 132 351 78 b 367 -65 338 22 367 -18 m 265 -68 b 192 0 265 -29 236 0 b 79 -100 142 0 79 -39 b 154 -168 79 -137 110 -168 b 265 -68 211 -168 265 -129 m 292 174 b 225 233 292 210 265 233 b 132 144 175 233 132 192 b 194 86 132 110 158 86 b 292 174 240 86 292 119 "},"₉":{"ha":461,"x_min":0,"x_max":0,"o":"m 19 -194 b 257 -4 122 -153 210 -94 b 150 -46 226 -33 189 -46 b -1 110 58 -46 -1 19 b 207 319 -1 215 88 319 b 393 133 325 319 393 236 b 50 -279 393 -65 229 -210 l 19 -194 m 169 39 b 289 104 215 39 261 65 b 293 144 292 118 293 132 b 217 235 293 194 274 235 b 100 108 156 235 100 176 b 169 39 100 65 126 39 "},"₍":{"ha":301,"x_min":0,"x_max":0,"o":"m 144 -393 b -12 -61 43 -310 -12 -194 b 285 407 -12 175 117 322 l 313 342 b 85 -62 189 274 85 133 b 193 -332 85 -160 124 -265 "},"₎":{"ha":301,"x_min":0,"x_max":0,"o":"m 54 407 b 211 75 156 324 211 208 b -86 -393 211 -161 82 -308 l -114 -328 b 114 76 10 -260 114 -119 b 6 346 114 174 75 279 "},"":{"ha":383,"x_min":0,"x_max":0,"o":"m 26 -53 l 42 33 l 258 33 l 243 -53 "},"":{"ha":231,"x_min":0,"x_max":0,"o":"m 42 -356 l -51 -356 l 29 -136 l 138 -136 "},"":{"ha":222,"x_min":0,"x_max":0,"o":"m -3 -247 l 18 -136 l 126 -136 l 106 -247 "},"½":{"ha":1111,"x_min":0,"x_max":0,"o":"m 136 -19 l 64 42 l 919 992 l 992 931 m 204 469 l 271 856 b 196 824 247 844 218 832 l 211 917 b 325 972 244 932 288 953 l 389 972 l 300 469 m 597 75 b 811 281 667 135 753 217 b 863 382 835 307 863 343 b 814 426 863 411 839 426 b 731 354 769 426 736 396 l 638 378 b 817 508 656 460 739 508 b 963 388 896 508 963 463 b 879 224 963 331 918 268 b 724 78 831 169 778 126 l 933 78 l 921 0 l 589 0 l 597 75 "},"⅓":{"ha":1111,"x_min":0,"x_max":0,"o":"m 204 469 l 271 856 b 196 824 247 844 218 832 l 211 917 b 325 972 244 932 288 953 l 389 972 l 300 469 m 136 -19 l 64 42 l 919 992 l 992 931 m 726 293 b 799 304 764 296 786 300 b 867 381 832 315 867 340 b 814 425 867 406 847 425 b 732 371 779 425 746 403 l 653 413 b 808 507 683 475 743 507 b 963 388 900 507 963 461 b 883 264 963 338 931 289 b 953 158 926 249 953 204 b 754 -10 953 60 861 -10 b 597 89 683 -10 618 25 l 682 121 b 754 72 693 88 719 72 b 854 161 801 72 854 107 b 778 217 854 196 822 217 b 721 210 763 217 744 215 "},"⅔":{"ha":1233,"x_min":0,"x_max":0,"o":"m 122 549 b 336 754 192 608 278 690 b 388 856 360 781 388 817 b 339 900 388 885 364 900 b 256 828 294 900 261 869 l 163 851 b 342 982 181 933 264 982 b 488 861 421 982 488 936 b 404 697 488 804 443 742 b 249 551 356 643 303 600 l 458 551 l 446 474 l 114 474 l 122 549 m 258 -19 l 186 42 l 1042 992 l 1114 931 m 849 293 b 921 304 886 296 908 300 b 989 381 954 315 989 340 b 936 425 989 406 969 425 b 854 371 901 425 868 403 l 775 413 b 931 507 806 475 865 507 b 1085 388 1022 507 1085 461 b 1006 264 1085 338 1053 289 b 1075 158 1049 249 1075 204 b 876 -10 1075 60 983 -10 b 719 89 806 -10 740 25 l 804 121 b 876 72 815 88 842 72 b 976 161 924 72 976 107 b 900 217 976 196 944 217 b 843 210 885 217 867 215 "},"¼":{"ha":1076,"x_min":0,"x_max":0,"o":"m 204 469 l 271 856 b 196 824 247 844 218 832 l 211 917 b 325 972 244 932 288 953 l 389 972 l 300 469 m 136 -19 l 64 42 l 919 992 l 992 931 m 544 224 b 794 499 621 304 714 407 l 904 499 l 851 203 l 922 203 l 907 124 l 838 124 l 815 0 l 721 0 l 743 124 l 525 124 m 789 382 b 635 203 744 328 672 242 l 757 203 l 789 382 "},"¾":{"ha":1169,"x_min":0,"x_max":0,"o":"m 254 768 b 326 779 292 771 314 775 b 394 856 360 790 394 815 b 342 900 394 881 375 900 b 260 846 307 900 274 878 l 181 888 b 336 982 211 950 271 982 b 490 863 428 982 490 936 b 411 739 490 813 458 764 b 481 633 454 724 481 679 b 282 465 481 535 389 465 b 125 564 211 465 146 500 l 210 596 b 282 547 221 563 247 547 b 382 636 329 547 382 582 b 306 692 382 671 350 692 b 249 685 290 692 272 690 m 229 -19 l 157 42 l 1013 992 l 1085 931 m 638 224 b 888 499 714 304 807 407 l 997 499 l 944 203 l 1015 203 l 1000 124 l 931 124 l 908 0 l 814 0 l 836 124 l 618 124 m 882 382 b 728 203 838 328 765 242 l 850 203 l 882 382 "},"⅛":{"ha":1131,"x_min":0,"x_max":0,"o":"m 204 469 l 271 856 b 196 824 247 844 218 832 l 211 917 b 325 972 244 932 288 953 l 389 972 l 300 469 m 136 -19 l 64 42 l 919 992 l 992 931 m 969 160 b 761 -10 969 61 872 -10 b 614 119 686 -10 614 40 b 717 264 614 181 656 236 b 664 356 686 285 664 317 b 854 507 664 446 757 507 b 992 393 926 507 992 460 b 906 261 992 338 957 289 b 969 160 944 239 969 203 m 872 158 b 808 218 872 192 847 218 b 711 129 765 218 711 183 b 775 69 711 97 739 69 b 872 158 825 69 872 104 m 897 374 b 839 428 897 407 874 428 b 758 349 796 428 758 392 b 813 297 758 318 781 297 b 897 374 851 297 897 326 "},"⅜":{"ha":1224,"x_min":0,"x_max":0,"o":"m 254 768 b 326 779 292 771 314 775 b 394 856 360 790 394 815 b 342 900 394 881 375 900 b 260 846 307 900 274 878 l 181 888 b 336 982 211 950 271 982 b 490 863 428 982 490 936 b 411 739 490 813 458 764 b 481 633 454 724 481 679 b 282 465 481 535 389 465 b 125 564 211 465 146 500 l 210 596 b 282 547 221 563 247 547 b 382 636 329 547 382 582 b 306 692 382 671 350 692 b 249 685 290 692 272 690 m 229 -19 l 157 42 l 1013 992 l 1085 931 m 1063 160 b 854 -10 1063 61 965 -10 b 707 119 779 -10 707 40 b 810 264 707 181 749 236 b 757 356 779 285 757 317 b 947 507 757 446 850 507 b 1085 393 1019 507 1085 460 b 999 261 1085 338 1050 289 b 1063 160 1038 239 1063 203 m 965 158 b 901 218 965 192 940 218 b 804 129 858 218 804 183 b 868 69 804 97 832 69 b 965 158 918 69 965 104 m 990 374 b 932 428 990 407 967 428 b 851 349 889 428 851 392 b 906 297 851 318 874 297 b 990 374 944 297 990 326 "},"⅝":{"ha":1206,"x_min":0,"x_max":0,"o":"m 313 892 b 285 775 304 851 294 813 b 343 789 306 786 324 789 b 479 654 425 789 479 729 b 283 465 479 557 394 465 b 129 563 213 465 150 504 l 211 596 b 278 547 221 558 250 547 b 381 653 329 547 381 594 b 318 711 381 689 356 711 b 242 675 289 711 261 700 l 174 721 b 235 972 193 793 222 904 l 504 972 l 490 892 m 211 -19 l 139 42 l 994 992 l 1067 931 m 1044 160 b 836 -10 1044 61 947 -10 b 689 119 761 -10 689 40 b 792 264 689 181 731 236 b 739 356 761 285 739 317 b 929 507 739 446 832 507 b 1067 393 1001 507 1067 460 b 981 261 1067 338 1032 289 b 1044 160 1019 239 1044 203 m 947 158 b 883 218 947 192 922 218 b 786 129 840 218 786 183 b 850 69 786 97 814 69 b 947 158 900 69 947 104 m 972 374 b 914 428 972 407 949 428 b 833 349 871 428 833 392 b 888 297 833 318 856 297 b 972 374 926 297 972 326 "},"⅞":{"ha":1131,"x_min":0,"x_max":0,"o":"m 529 907 b 243 450 440 772 324 586 l 163 496 b 417 890 261 661 360 800 l 190 890 l 204 972 l 540 972 m 136 -19 l 64 42 l 919 992 l 992 931 m 969 160 b 761 -10 969 61 872 -10 b 614 119 686 -10 614 40 b 717 264 614 181 656 236 b 664 356 686 285 664 317 b 854 507 664 446 757 507 b 992 393 926 507 992 460 b 906 261 992 338 957 289 b 969 160 944 239 969 203 m 872 158 b 808 218 872 192 847 218 b 711 129 765 218 711 183 b 775 69 711 97 739 69 b 872 158 825 69 872 104 m 897 374 b 839 428 897 407 874 428 b 758 349 796 428 758 392 b 813 297 758 318 781 297 b 897 374 851 297 897 326 "},"∂":{"ha":764,"x_min":0,"x_max":0,"o":"m 150 1078 b 743 403 524 918 743 717 b 346 -17 743 181 608 -17 b 24 324 140 -17 24 146 b 400 694 24 529 199 694 b 529 672 447 694 493 685 b 99 972 435 808 283 894 m 592 547 b 450 579 544 571 499 579 b 153 321 297 579 153 508 b 365 100 153 194 244 100 b 615 392 538 100 615 247 b 592 547 615 449 607 500 "},"Ω":{"ha":1103,"x_min":0,"x_max":0,"o":"m 596 132 b 915 556 801 182 915 360 b 606 869 915 738 779 869 b 218 479 383 869 218 696 b 457 132 218 336 299 171 l 435 0 l -6 0 l 15 119 l 278 119 b 78 474 149 200 78 322 b 607 989 78 768 313 989 b 1056 565 843 989 1056 819 b 778 119 1056 375 960 200 l 1036 119 l 1015 0 l 574 0 "},"∆":{"ha":879,"x_min":0,"x_max":0,"o":"m -65 0 l 482 972 l 599 972 l 800 0 m 507 776 l 504 776 l 153 119 l 632 119 "},"∏":{"ha":764,"x_min":0,"x_max":0,"o":"m 557 672 l 329 672 l 210 0 l 75 0 l 194 672 l 71 672 l 92 792 l 836 792 l 815 672 l 692 672 l 572 0 l 438 0 "},"∑":{"ha":764,"x_min":0,"x_max":0,"o":"m -31 81 l 397 513 l 129 910 l 140 972 l 801 972 l 781 853 l 325 853 l 564 499 l 200 119 l 686 119 l 665 0 l -44 0 "},"Δ":{"ha":764,"x_min":0,"x_max":0,"o":"m 693 0 l -46 0 l 401 792 l 531 792 m 436 625 l 435 625 l 158 113 l 535 113 "},"Ω":{"ha":1103,"x_min":0,"x_max":0,"o":"m 596 132 b 915 556 801 182 915 360 b 606 869 915 738 779 869 b 218 479 383 869 218 696 b 457 132 218 336 299 171 l 435 0 l -6 0 l 15 119 l 278 119 b 78 474 149 200 78 322 b 607 989 78 768 313 989 b 1056 565 843 989 1056 819 b 778 119 1056 375 960 200 l 1036 119 l 1015 0 l 574 0 "},"μ":{"ha":764,"x_min":0,"x_max":0,"o":"m 75 -347 l -53 -347 l 132 694 l 260 694 l 197 340 b 183 232 192 306 183 268 b 313 100 183 142 226 100 b 538 228 400 100 478 158 l 621 694 l 749 694 l 625 0 l 497 0 l 517 107 b 275 -17 453 32 376 -17 b 142 28 221 -17 179 -6 "},"π":{"ha":764,"x_min":0,"x_max":0,"o":"m 54 0 b 81 97 68 35 75 67 l 165 583 l 83 583 l 103 694 l 807 694 l 788 583 l 657 583 l 599 244 b 589 160 593 214 589 188 b 632 85 589 118 601 100 l 564 -22 b 458 142 492 -3 458 54 b 467 232 458 172 461 200 l 528 583 l 294 583 l 208 85 b 186 0 203 57 197 29 "},"µ":{"ha":764,"x_min":0,"x_max":0,"o":"m 75 -347 l -53 -347 l 132 694 l 260 694 l 197 340 b 183 232 192 306 183 268 b 313 100 183 142 226 100 b 538 228 400 100 478 158 l 621 694 l 749 694 l 625 0 l 497 0 l 517 107 b 275 -17 453 32 376 -17 b 142 28 221 -17 179 -6 "},"∕":{"ha":504,"x_min":0,"x_max":0,"o":"m 15 -74 l -79 -28 l 514 1058 l 608 1013 "},"∙":{"ha":764,"x_min":0,"x_max":0,"o":"m 306 351 l 335 513 l 482 513 l 453 351 "},"^":{"ha":764,"x_min":0,"x_max":0,"o":"m 553 486 l 447 839 l 217 486 l 103 486 l 394 946 l 528 946 l 657 486 "},"_":{"ha":764,"x_min":0,"x_max":0,"o":"m -7 -326 l 7 -239 l 771 -239 l 756 -326 "},"~":{"ha":764,"x_min":0,"x_max":0,"o":"m 243 578 b 532 453 388 578 440 453 b 626 539 582 453 626 494 l 626 546 l 731 546 b 726 499 731 535 729 519 b 521 338 710 397 626 338 b 232 463 376 338 324 463 b 138 376 182 463 138 421 l 138 369 l 33 369 b 38 417 33 381 35 396 b 243 578 54 518 138 578 "},"√":{"ha":764,"x_min":0,"x_max":0,"o":"m 310 168 l 311 168 l 725 1042 l 868 1042 l 347 0 l 214 0 l 143 582 l 19 582 l 40 694 l 265 694 "},"∞":{"ha":1081,"x_min":0,"x_max":0,"o":"m 558 422 b 825 572 665 525 738 572 b 1038 363 949 572 1038 479 b 785 114 1038 229 922 114 b 546 264 697 114 633 161 b 279 114 438 161 365 114 b 67 324 156 114 67 207 b 319 572 67 457 182 572 b 558 422 406 572 469 525 m 310 465 b 189 332 240 465 189 400 b 289 221 189 274 229 221 b 481 343 343 221 411 276 b 310 465 424 411 364 465 m 794 221 b 917 351 861 221 917 285 b 815 465 917 411 876 465 b 625 343 761 465 693 410 b 794 221 681 275 740 221 "},"∫":{"ha":764,"x_min":0,"x_max":0,"o":"m 408 803 b 493 992 426 885 451 949 b 678 1058 535 1036 593 1058 b 806 1029 725 1058 768 1046 l 758 922 b 675 942 735 935 708 942 b 574 904 622 942 593 929 b 533 785 554 878 544 838 l 353 -51 b 269 -239 336 -131 310 -194 b 94 -307 229 -283 172 -307 b -17 -279 51 -307 21 -296 l 31 -172 b 100 -190 54 -185 72 -190 b 190 -151 147 -190 174 -176 b 225 -43 207 -126 215 -89 "},"≈":{"ha":764,"x_min":0,"x_max":0,"o":"m 700 343 b 517 239 664 268 597 239 b 269 297 431 239 354 297 b 161 246 226 297 185 285 l 88 303 b 271 407 124 378 190 407 b 518 349 357 407 433 349 b 626 400 561 349 603 361 l 700 343 m 700 561 b 517 457 664 486 597 457 b 269 515 431 457 354 515 b 161 464 226 515 185 503 l 88 521 b 271 625 124 596 190 625 b 518 567 357 625 433 567 b 626 618 561 567 603 579 l 700 561 "},"≠":{"ha":764,"x_min":0,"x_max":0,"o":"m 185 269 l 58 269 l 78 378 l 276 378 l 368 486 l 96 486 l 115 594 l 460 594 l 649 817 l 722 756 l 585 594 l 728 594 l 708 486 l 493 486 l 401 378 l 690 378 l 671 269 l 310 269 l 121 47 l 47 108 "},"≤":{"ha":764,"x_min":0,"x_max":0,"o":"m -10 108 l 685 108 l 665 0 l -29 0 m 71 576 l 814 854 l 794 739 l 197 517 l 718 296 l 700 194 l 53 471 "},"≥":{"ha":764,"x_min":0,"x_max":0,"o":"m 685 108 l 665 0 l -29 0 l -10 108 m 749 472 l 6 194 l 25 310 l 622 532 l 101 753 l 119 854 l 767 578 "},"<":{"ha":764,"x_min":0,"x_max":0,"o":"m 54 485 l 797 763 l 778 647 l 181 425 l 701 204 l 683 103 l 36 379 "},"=":{"ha":764,"x_min":0,"x_max":0,"o":"m 115 594 l 728 594 l 708 486 l 96 486 m 78 378 l 690 378 l 671 269 l 58 269 "},">":{"ha":764,"x_min":0,"x_max":0,"o":"m 735 381 l -8 103 l 11 218 l 608 440 l 88 661 l 106 763 l 753 486 "},"◊":{"ha":764,"x_min":0,"x_max":0,"o":"m 64 497 l 414 972 l 533 972 l 724 475 l 374 0 l 254 0 m 464 865 l 179 481 l 322 107 l 608 492 "},"+":{"ha":764,"x_min":0,"x_max":0,"o":"m 54 486 l 347 486 l 399 779 l 508 779 l 457 486 l 750 486 l 731 378 l 438 378 l 386 83 l 276 83 l 328 378 l 35 378 "},"−":{"ha":764,"x_min":0,"x_max":0,"o":"m 96 486 l 708 486 l 690 378 l 78 378 "},"±":{"ha":764,"x_min":0,"x_max":0,"o":"m -12 108 l 683 108 l 664 0 l -32 0 m 71 583 l 364 583 l 415 876 l 525 876 l 474 583 l 767 583 l 747 475 l 454 475 l 403 181 l 293 181 l 344 475 l 51 475 "},"÷":{"ha":764,"x_min":0,"x_max":0,"o":"m 54 486 l 751 486 l 733 378 l 36 378 m 353 618 l 382 779 l 529 779 l 500 618 m 435 246 l 406 85 l 258 85 l 288 246 "},"×":{"ha":764,"x_min":0,"x_max":0,"o":"m 235 714 l 401 510 l 649 719 l 719 638 l 471 426 l 638 222 l 554 151 l 388 356 l 140 146 l 69 228 l 318 439 l 151 643 "},"ʼ":{"ha":500,"x_min":0,"x_max":0,"o":"m 376 989 l 244 694 l 133 694 l 239 989 "},"○":{"ha":508,"x_min":0,"x_max":0,"o":"m 49 401 b 254 607 49 515 140 607 b 460 401 368 607 460 515 b 254 196 460 288 368 196 b 49 401 140 196 49 288 "},"△":{"ha":553,"x_min":0,"x_max":0,"o":"m 83 154 l 83 638 l 511 397 "},"¬":{"ha":764,"x_min":0,"x_max":0,"o":"m 761 583 l 690 181 l 581 181 l 632 475 l 44 475 l 64 583 "},"⇒":{"ha":1315,"x_min":0,"x_max":0,"o":"m 1028 417 l 97 417 l 97 517 l 926 517 l 740 700 l 811 771 l 1218 367 l 811 -39 l 740 33 l 926 217 l 97 217 l 97 317 l 1028 317 l 1079 367 "},"⇔":{"ha":1706,"x_min":0,"x_max":0,"o":"m 388 517 l 1317 517 l 1131 700 l 1201 771 l 1608 367 l 1201 -39 l 1131 33 l 1317 217 l 389 217 l 575 33 l 504 -39 l 97 367 l 504 771 l 575 700 m 1418 417 l 286 417 l 236 367 l 286 317 l 1418 317 l 1469 367 "},"∀":{"ha":907,"x_min":0,"x_max":0,"o":"m 436 0 l 314 0 l 115 972 l 263 972 l 303 765 l 717 765 l 829 972 l 983 972 m 653 646 l 325 646 l 411 203 l 413 203 "},"∃":{"ha":807,"x_min":0,"x_max":0,"o":"m 772 972 l 601 0 l 15 0 l 36 119 l 486 119 l 538 411 l 88 411 l 108 531 l 558 531 l 615 853 l 165 853 l 186 972 "},"∄":{"ha":806,"x_min":0,"x_max":0,"o":"m 525 972 l 579 1089 l 676 1056 l 638 972 l 772 972 l 601 0 l 188 0 l 133 -117 l 36 -83 l 75 0 l 15 0 l 36 119 l 131 119 l 265 411 l 88 411 l 108 531 l 321 531 l 469 853 l 165 853 l 186 972 m 378 411 l 243 119 l 486 119 l 538 411 m 582 853 l 433 531 l 558 531 l 615 853 "},"∪":{"ha":764,"x_min":0,"x_max":0,"o":"m 700 419 b 342 -17 651 108 531 -17 b 64 278 161 -17 64 81 b 76 428 64 322 68 372 l 118 694 l 229 694 l 179 372 b 171 274 174 335 171 303 b 336 94 171 172 219 94 b 583 381 461 94 553 181 l 632 694 l 743 694 "},"∩":{"ha":764,"x_min":0,"x_max":0,"o":"m 56 275 b 414 711 104 586 225 711 b 692 417 594 711 692 614 b 679 267 692 372 688 322 l 638 0 l 526 0 l 576 322 b 585 421 582 360 585 392 b 419 600 585 522 536 600 b 172 314 294 600 203 514 l 124 0 l 13 0 "},"⊆":{"ha":764,"x_min":0,"x_max":0,"o":"m 496 222 b 101 517 304 222 101 286 b 607 917 101 796 318 917 l 772 917 l 753 806 l 565 806 b 228 524 386 806 228 715 b 474 333 228 392 340 333 l 669 333 l 650 222 l 496 222 m 631 111 l 611 0 l 22 0 l 42 111 "},"⊇":{"ha":764,"x_min":0,"x_max":0,"o":"m 613 111 l 593 0 l 4 0 l 24 111 m 319 917 b 714 622 511 917 714 853 b 208 222 714 343 497 222 l 43 222 l 63 333 l 250 333 b 588 615 429 333 588 424 b 342 806 588 747 475 806 l 146 806 l 165 917 l 319 917 "},"⊂":{"ha":764,"x_min":0,"x_max":0,"o":"m 467 0 b 72 294 275 0 72 64 b 578 694 72 574 289 694 l 743 694 l 724 583 l 536 583 b 199 301 357 583 199 493 b 444 111 199 169 311 111 l 640 111 l 621 0 l 467 0 "},"⊃":{"ha":764,"x_min":0,"x_max":0,"o":"m 294 694 b 689 400 486 694 689 631 b 183 0 689 121 472 0 l 18 0 l 38 111 l 225 111 b 563 393 404 111 563 201 b 317 583 563 525 450 583 l 121 583 l 140 694 l 294 694 "},"⊄":{"ha":764,"x_min":0,"x_max":0,"o":"m 468 0 b 326 14 419 0 372 4 l 233 -186 l 136 -153 l 228 46 b 74 294 138 89 74 164 b 528 693 74 557 264 679 l 614 881 l 711 847 l 640 694 l 744 694 l 725 583 l 589 583 l 374 118 b 446 111 396 113 421 111 l 642 111 l 622 0 l 468 0 m 200 301 b 278 154 200 233 229 185 l 475 579 b 200 301 322 560 200 469 "},"⊅":{"ha":764,"x_min":0,"x_max":0,"o":"m 124 0 l 18 0 l 38 111 l 175 111 l 390 576 b 317 583 367 582 342 583 l 121 583 l 140 694 l 294 694 b 438 681 343 694 392 690 l 531 881 l 628 847 l 536 649 b 689 400 625 606 689 529 b 236 1 689 138 499 15 l 150 -186 l 53 -153 m 563 393 b 486 540 563 460 532 508 l 289 115 b 563 393 440 135 563 225 "},"∈":{"ha":764,"x_min":0,"x_max":0,"o":"m 467 0 b 72 294 275 0 72 64 b 578 694 72 574 289 694 l 743 694 l 724 583 l 536 583 b 215 403 392 583 261 525 l 693 403 l 672 292 l 199 292 b 444 111 204 167 314 111 l 640 111 l 621 0 l 467 0 "},"∉":{"ha":764,"x_min":0,"x_max":0,"o":"m 467 0 b 325 14 418 0 371 4 l 232 -186 l 135 -153 l 226 46 b 72 294 136 89 72 164 b 526 693 72 557 264 679 l 613 881 l 710 847 l 639 694 l 743 694 l 724 583 l 588 583 l 504 403 l 693 403 l 672 292 l 453 292 l 372 118 b 444 111 394 113 419 111 l 640 111 l 621 0 l 467 0 m 474 579 b 215 403 354 564 254 507 l 392 403 l 474 579 m 199 292 b 276 154 201 228 231 183 l 340 292 l 199 292 "},"◻":{"ha":764,"x_min":0,"x_max":0,"o":"m 71 47 l 158 547 l 661 547 l 574 47 m 190 147 l 489 147 l 542 447 l 243 447 "},"⋄":{"ha":764,"x_min":0,"x_max":0,"o":"m 119 360 l 447 769 l 646 333 l 318 -76 m 528 339 l 419 578 l 238 354 l 346 115 "},"∴":{"ha":764,"x_min":0,"x_max":0,"o":"m 19 0 l 49 161 l 196 161 l 167 0 m 458 0 l 488 161 l 635 161 l 606 0 m 308 394 l 338 556 l 485 556 l 456 394 "},"⇽":{"ha":1317,"x_min":0,"x_max":0,"o":"m 488 417 l 1219 417 l 1219 317 l 488 317 l 488 -21 l 97 367 l 488 753 m 389 213 l 389 518 l 233 367 "},"⇾":{"ha":1315,"x_min":0,"x_max":0,"o":"m 829 317 l 97 317 l 97 417 l 829 417 l 829 753 l 1218 367 l 829 -21 m 1082 367 l 926 518 l 926 213 "},"⇿":{"ha":1706,"x_min":0,"x_max":0,"o":"m 488 417 l 1219 417 l 1219 753 l 1608 367 l 1219 -21 l 1219 317 l 488 317 l 488 -21 l 97 367 l 488 753 m 389 213 l 389 518 l 233 367 m 1472 367 l 1317 518 l 1317 213 "},"→":{"ha":1315,"x_min":0,"x_max":0,"o":"m 740 33 l 1028 317 l 97 317 l 97 417 l 1028 417 l 740 700 l 811 771 l 1218 367 l 811 -39 "},"↔":{"ha":1551,"x_min":0,"x_max":0,"o":"m 286 417 l 1264 417 l 976 700 l 1047 771 l 1454 367 l 1047 -39 l 976 33 l 1264 317 l 286 317 l 575 33 l 504 -39 l 97 367 l 504 771 l 575 700 "}," ":{"ha":174,"x_min":0,"x_max":0,"o":""}}}
